SplineFontDB: 3.0
FontName: stmary10
FullName: stmary10
FamilyName: stmary10
Weight: Roman
Copyright: Copyright (c) Taco Hoekwater, 1998. All rights reserved.
Version: 001.001
ItalicAngle: 0
UnderlinePosition: -102.4
UnderlineWidth: 51.2
Ascent: 819
Descent: 205
LayerCount: 2
Layer: 0 0 "Back"  1
Layer: 1 0 "Zeichenebene"  0
OS2Version: 0
OS2_WeightWidthSlopeOnly: 0
OS2_UseTypoMetrics: 0
CreationTime: 1302307949
ModificationTime: 1421634721
OS2TypoAscent: 0
OS2TypoAOffset: 1
OS2TypoDescent: 0
OS2TypoDOffset: 1
OS2TypoLinegap: 0
OS2WinAscent: 0
OS2WinAOffset: 1
OS2WinDescent: 0
OS2WinDOffset: 1
HheadAscent: 0
HheadAOffset: 1
HheadDescent: 0
HheadDOffset: 1
OS2Vendor: 'PfEd'
MarkAttachClasses: 1
DEI: 91125
LangName: 1033 "" "" "LyX" "FontForge 2.0 : stmary10 : 17-7-2010" 
Encoding: UnicodeBmp
UnicodeInterp: none
NameList: Adobe Glyph List
DisplaySize: -96
AntiAlias: 1
FitToEm: 1
WinInfo: 0 8 2
BeginPrivate: 0
EndPrivate
BeginChars: 65539 131

StartChar: shortrightarrow
Encoding: 1 1 2
Width: 796
Flags: HMW
HStem: 74 22<551 552 552 560> 236 41<70 651 77 651> 418 20G<552 560 560 563>
LayerCount: 2
Fore
SplineSet
730 266 m 0
 733 265 735 263 737 260 c 1
 737 258 738 257 738 256 c 2
 737 252 l 1
 735 249 733 247 730 246 c 0
 657 215 599 156 571 81 c 0
 569 77 565 74 560 74 c 2
 552 74 l 2
 551 74 549 74 548 75 c 0
 543 77 541 81 541 85 c 2
 541 89 l 1
 564 148 602 199 651 236 c 1
 77 236 l 2
 64 236 56 246 56 256 c 0
 56 266 64 276 77 276 c 2
 651 276 l 1
 602 313 564 364 541 423 c 1
 541 427 l 2
 541 432 545 438 552 438 c 2
 560 438 l 2
 565 438 569 435 571 431 c 0
 599 356 657 297 730 266 c 0
EndSplineSet
EndChar

StartChar: shortuparrow
Encoding: 2 2 3
Width: 512
Flags: HMW
HStem: -85 22<250 260> 578 20G<254 256>
VStem: 234 41<-65 511>
LayerCount: 2
Fore
SplineSet
259 597 m 2
 262 595 264 593 265 590 c 0
 296 516 354 459 429 430 c 0
 433 428 436 424 436 420 c 2
 436 411 l 2
 436 405 431 399 425 399 c 1
 421 400 l 1
 363 423 312 462 275 511 c 1
 275 -65 l 2
 275 -79 265 -85 255 -85 c 0
 245 -85 234 -79 234 -65 c 2
 234 511 l 1
 197 462 147 423 89 400 c 1
 85 399 l 1
 79 399 74 405 74 411 c 2
 74 420 l 2
 74 424 77 428 81 430 c 0
 156 459 214 516 245 590 c 0
 247 595 252 598 256 598 c 1
 259 597 l 2
EndSplineSet
EndChar

StartChar: shortdownarrow
Encoding: 3 3 4
Width: 512
Flags: HMW
HStem: -86 22<254 256> 577 20G<234 260 250 275>
VStem: 234 41<1 577 1 583>
LayerCount: 2
Fore
SplineSet
265 -78 m 0
 263 -83 258 -86 254 -86 c 1
 251 -85 l 2
 248 -83 246 -81 245 -78 c 0
 214 -4 156 53 81 82 c 0
 77 84 74 88 74 92 c 2
 74 101 l 2
 74 106 79 113 85 113 c 1
 89 112 l 1
 147 89 197 50 234 1 c 1
 234 577 l 2
 234 590 245 597 255 597 c 0
 265 597 275 590 275 577 c 2
 275 1 l 1
 312 50 363 89 421 112 c 1
 425 113 l 2
 429 113 434 109 435 105 c 0
 436 103 436 102 436 101 c 2
 436 92 l 2
 436 88 433 84 429 82 c 0
 354 53 296 -4 265 -78 c 0
EndSplineSet
EndChar

StartChar: Yup
Encoding: 4 4 5
Width: 569
Flags: HMW
HStem: 29 22<74 79 487 492> 520 20G<263 289 278 304>
VStem: 263 41<264 520 264 526>
LayerCount: 2
Fore
SplineSet
263 520 m 2
 263 531 273 541 284 541 c 0
 295 541 304 531 304 520 c 2
 304 264 l 1
 504 63 l 2
 508 59 510 53 510 48 c 0
 510 43 508 38 504 34 c 0
 500 30 494 29 489 29 c 0
 484 29 479 30 475 34 c 2
 284 227 l 1
 92 34 l 2
 88 30 82 29 77 29 c 0
 72 29 66 30 62 34 c 0
 58 38 56 43 56 48 c 0
 56 53 58 59 62 63 c 2
 263 264 l 1
 263 520 l 2
EndSplineSet
EndChar

StartChar: Ydown
Encoding: 5 5 6
Width: 569
Flags: HMW
HStem: -29 22<278 289> 463 20G<74 79 487 492>
VStem: 263 41<-8 248>
LayerCount: 2
Fore
SplineSet
304 -8 m 2
 304 -19 295 -29 284 -29 c 0
 273 -29 263 -19 263 -8 c 2
 263 248 l 1
 62 449 l 2
 58 453 56 458 56 463 c 0
 56 468 58 474 62 478 c 0
 66 481 72 483 77 483 c 0
 82 483 88 481 92 478 c 2
 284 285 l 1
 475 478 l 2
 479 481 484 483 489 483 c 0
 494 483 500 481 504 478 c 0
 508 474 510 468 510 463 c 0
 510 458 508 453 504 449 c 2
 304 248 l 1
 304 -8 l 2
EndSplineSet
EndChar

StartChar: Yleft
Encoding: 6 6 7
Width: 625
Flags: HMW
HStem: 29 22<544 549> 236 41<71 332 77 332> 463 20G<544 549>
LayerCount: 2
Fore
SplineSet
77 236 m 2
 66 236 56 245 56 256 c 0
 56 267 66 276 77 276 c 2
 332 276 l 1
 531 477 l 2
 535 481 542 483 547 483 c 0
 552 483 557 481 561 478 c 0
 565 474 567 468 567 463 c 0
 567 458 565 453 561 449 c 2
 370 256 l 1
 561 63 l 2
 565 59 567 53 567 48 c 0
 567 43 565 38 561 34 c 0
 557 31 552 29 547 29 c 0
 542 29 535 31 531 35 c 2
 332 236 l 1
 77 236 l 2
EndSplineSet
EndChar

StartChar: Yright
Encoding: 7 7 8
Width: 625
Flags: HMW
HStem: 29 22<74 79> 236 41<292 547 292 547> 463 20G<74 79>
LayerCount: 2
Fore
SplineSet
547 276 m 2
 558 276 567 267 567 256 c 0
 567 245 558 236 547 236 c 2
 292 236 l 1
 92 35 l 2
 88 31 82 29 77 29 c 0
 72 29 66 31 62 34 c 0
 58 38 56 43 56 48 c 0
 56 53 58 59 62 63 c 2
 255 256 l 1
 62 449 l 2
 58 453 56 458 56 463 c 0
 56 468 58 474 62 478 c 0
 66 481 72 483 77 483 c 0
 82 483 88 481 92 477 c 2
 292 276 l 1
 547 276 l 2
EndSplineSet
EndChar

StartChar: varcurlyvee
Encoding: 8 8 9
Width: 683
Flags: HMW
HStem: -222 22<334 346> 690 20G<17 23 658 664>
VStem: 319 41<-207 -34>
LayerCount: 2
Fore
SplineSet
8 675 m 0
 3 679 0 685 0 691 c 0
 0 695 1 699 4 703 c 0
 8 708 14 711 20 711 c 0
 24 711 30 710 33 707 c 0
 220 561 306 341 340 109 c 1
 375 341 460 561 647 707 c 0
 651 710 656 711 660 711 c 0
 666 711 673 708 676 703 c 0
 679 699 681 695 681 690 c 0
 681 684 678 678 673 675 c 0
 419 476 360 133 360 -202 c 0
 360 -213 351 -222 340 -222 c 0
 329 -222 319 -213 319 -202 c 0
 319 133 261 476 8 675 c 0
EndSplineSet
EndChar

StartChar: varcurlywedge
Encoding: 9 9 10
Width: 683
Flags: HMW
HStem: -222 22<17 23 658 664> 690 20G<334 346>
VStem: 319 41<525 696>
LayerCount: 2
Fore
SplineSet
34 -217 m 0
 30 -220 25 -222 20 -222 c 0
 14 -222 9 -219 5 -215 c 0
 2 -211 0 -206 0 -201 c 0
 0 -195 3 -189 7 -185 c 0
 252 23 319 359 319 690 c 0
 319 701 329 711 340 711 c 0
 351 711 360 701 360 690 c 0
 360 359 429 23 674 -185 c 0
 678 -189 681 -195 681 -201 c 0
 681 -206 679 -211 676 -215 c 0
 672 -219 666 -222 660 -222 c 0
 655 -222 651 -220 647 -217 c 0
 464 -61 376 160 340 396 c 1
 305 160 217 -61 34 -217 c 0
EndSplineSet
EndChar

StartChar: minuso
Encoding: 10 10 11
Width: 796
Flags: HMW
HStem: 29 41<373 422 373 428> 236 41<71 170 77 170 211 583 624 717> 442 41<373 422>
VStem: 170 41<236 236> 583 41<236 236>
LayerCount: 2
Fore
SplineSet
77 236 m 2
 66 236 56 245 56 256 c 0
 56 267 66 276 77 276 c 2
 170 276 l 1
 175 329 199 379 237 417 c 0
 279 460 337 483 397 483 c 0
 457 483 515 460 558 417 c 0
 596 379 620 329 624 276 c 1
 717 276 l 2
 728 276 737 267 737 256 c 0
 737 245 728 236 717 236 c 2
 624 236 l 1
 620 183 596 133 558 95 c 0
 515 52 457 29 397 29 c 0
 337 29 279 52 237 95 c 0
 199 133 175 183 170 236 c 1
 77 236 l 2
529 124 m 0
 559 155 578 194 583 236 c 1
 211 236 l 1
 215 194 235 155 265 124 c 0
 300 89 348 70 397 70 c 0
 446 70 494 89 529 124 c 0
265 388 m 0
 235 357 215 318 211 276 c 1
 583 276 l 1
 578 318 559 357 529 388 c 0
 494 423 446 442 397 442 c 0
 348 442 300 423 265 388 c 0
EndSplineSet
EndChar

StartChar: baro
Encoding: 11 11 12
Width: 569
Flags: HMW
HStem: -85 22<278 289> 31 41<263 263> 440 41<263 263> 577 20G<263 289 278 304>
VStem: 57 41<231 281 231 286> 263 41<-65 31 72 440 481 577> 469 41<231 281>
LayerCount: 2
Fore
SplineSet
263 577 m 2
 263 588 273 597 284 597 c 0
 295 597 304 588 304 577 c 2
 304 481 l 1
 356 476 406 454 443 417 c 0
 486 374 510 316 510 256 c 0
 510 196 486 138 443 95 c 0
 406 58 356 36 304 31 c 1
 304 -65 l 2
 304 -76 295 -85 284 -85 c 0
 273 -85 263 -76 263 -65 c 2
 263 31 l 1
 210 36 161 58 124 95 c 0
 81 138 57 196 57 256 c 0
 57 316 81 374 123 416 c 0
 161 454 210 476 263 481 c 1
 263 577 l 2
153 125 m 0
 183 95 221 76 263 72 c 1
 263 440 l 1
 221 436 183 417 153 387 c 0
 118 352 98 305 98 256 c 0
 98 207 118 160 153 125 c 0
415 387 m 0
 385 417 346 436 304 440 c 1
 304 72 l 1
 346 76 385 95 415 125 c 0
 450 160 469 207 469 256 c 0
 469 305 450 352 415 387 c 0
EndSplineSet
EndChar

StartChar: sslash
Encoding: 12 12 13
Width: 683
Flags: HMW
HStem: -256 22<77 82 247 252> 748 20G<428 433 599 604>
LayerCount: 2
Fore
SplineSet
414 755 m 2
 416 763 424 768 432 768 c 0
 434 768 437 768 439 767 c 0
 447 764 453 757 453 749 c 0
 453 747 453 743 452 740 c 2
 96 -243 l 2
 94 -251 86 -256 78 -256 c 0
 76 -256 73 -256 71 -255 c 0
 63 -252 57 -245 57 -237 c 0
 57 -235 57 -231 58 -228 c 2
 414 755 l 2
584 755 m 2
 587 763 595 768 603 768 c 0
 605 768 608 768 610 767 c 0
 618 764 624 756 624 748 c 0
 624 746 624 742 623 740 c 2
 267 -243 l 2
 264 -251 256 -256 248 -256 c 0
 246 -256 243 -256 241 -255 c 0
 233 -252 227 -244 227 -236 c 0
 227 -234 227 -230 228 -228 c 2
 584 755 l 2
EndSplineSet
EndChar

StartChar: bbslash
Encoding: 13 13 14
Width: 683
Flags: HMW
HStem: -256 22<428 433 599 604> 748 20G<77 82 247 252>
LayerCount: 2
Fore
SplineSet
452 -228 m 2
 453 -231 453 -235 453 -237 c 0
 453 -245 447 -252 439 -255 c 0
 437 -256 434 -256 432 -256 c 0
 424 -256 416 -251 414 -243 c 2
 58 740 l 2
 57 743 57 747 57 749 c 0
 57 757 63 764 71 767 c 0
 73 768 76 768 78 768 c 0
 86 768 94 763 96 755 c 2
 452 -228 l 2
623 -228 m 2
 624 -230 624 -234 624 -236 c 0
 624 -244 618 -252 610 -255 c 0
 608 -256 605 -256 603 -256 c 0
 595 -256 587 -251 584 -243 c 2
 228 740 l 2
 227 742 227 746 227 748 c 0
 227 756 233 764 241 767 c 0
 243 768 246 768 248 768 c 0
 256 768 264 763 267 755 c 2
 623 -228 l 2
EndSplineSet
EndChar

StartChar: moo
Encoding: 14 14 15
Width: 796
Flags: HMW
HStem: -23 41<220 281 514 574> 236 41<129 377 134 376 418 660> 514 20G<377 403 392 418>
VStem: 377 41<276 514>
LayerCount: 2
Fore
SplineSet
377 514 m 2
 377 525 386 535 397 535 c 0
 408 535 418 525 418 514 c 2
 418 276 l 1
 660 276 l 2
 671 276 681 267 681 256 c 0
 681 245 671 236 660 236 c 2
 418 236 l 1
 423 118 469 18 555 18 c 0
 594 18 629 44 641 81 c 0
 643 90 651 96 660 96 c 0
 662 96 665 96 667 95 c 0
 675 92 681 83 681 75 c 0
 681 73 681 72 680 70 c 0
 663 15 612 -23 555 -23 c 0
 472 -23 422 38 397 116 c 1
 371 38 323 -23 240 -23 c 0
 183 -23 131 15 115 70 c 0
 114 72 114 74 114 76 c 0
 114 84 119 92 128 95 c 0
 130 96 132 96 134 96 c 0
 143 96 152 90 154 81 c 0
 165 44 200 18 240 18 c 0
 326 18 372 118 376 236 c 1
 134 236 l 2
 123 236 114 245 114 256 c 0
 114 267 123 276 134 276 c 2
 377 276 l 1
 377 514 l 2
EndSplineSet
EndChar

StartChar: varotimes
Encoding: 15 15 16
Width: 796
Flags: HMW
HStem: -84 41<361 434 361 442> 555 41<361 434>
VStem: 57 41<220 292 220 301> 696 41<220 292>
LayerCount: 2
Fore
SplineSet
397 285 m 1
 594 481 l 1
 540 529 470 555 397 555 c 0
 324 555 255 529 201 481 c 1
 397 285 l 1
157 497 m 0
 220 560 307 596 397 596 c 0
 487 596 575 560 638 497 c 0
 701 434 737 346 737 256 c 0
 737 166 701 78 638 15 c 0
 575 -48 487 -84 397 -84 c 0
 307 -84 220 -48 157 15 c 0
 92 78 57 166 57 256 c 0
 57 346 92 434 157 497 c 0
623 59 m 1
 671 113 696 183 696 256 c 0
 696 329 671 399 623 453 c 1
 426 256 l 1
 623 59 l 1
201 31 m 1
 255 -17 324 -43 397 -43 c 0
 470 -43 540 -17 594 31 c 1
 397 227 l 1
 201 31 l 1
171 453 m 1
 124 399 98 329 98 256 c 0
 98 183 124 113 171 59 c 1
 368 256 l 1
 171 453 l 1
EndSplineSet
EndChar

StartChar: varoast
Encoding: 16 16 17
Width: 796
Flags: HMW
HStem: -84 41<357 437 357 442> 555 41<357 437>
VStem: 57 41<216 296 216 301> 371 53<50 56 456 462> 696 41<216 296>
LayerCount: 2
Fore
SplineSet
696 256 m 0
 696 336 664 412 609 468 c 0
 553 524 476 555 397 555 c 0
 317 555 241 524 185 468 c 0
 129 412 98 336 98 256 c 0
 98 176 129 100 185 44 c 0
 241 -12 317 -43 397 -43 c 0
 476 -43 553 -12 609 44 c 0
 664 100 696 176 696 256 c 0
157 497 m 0
 220 560 307 596 397 596 c 0
 487 596 575 560 638 497 c 0
 701 434 737 346 737 256 c 0
 737 166 701 78 638 15 c 0
 575 -48 487 -84 397 -84 c 0
 307 -84 220 -48 157 15 c 0
 92 78 57 166 57 256 c 0
 57 346 92 434 157 497 c 0
204 144 m 0
 201 149 200 154 200 159 c 0
 200 168 205 176 213 181 c 1
 374 256 l 1
 213 331 l 1
 205 336 200 344 200 353 c 0
 200 358 201 363 204 368 c 0
 209 377 217 382 226 382 c 0
 230 382 236 381 240 378 c 2
 385 276 l 1
 371 456 l 1
 371 470 383 480 397 480 c 0
 411 480 424 469 424 455 c 1
 409 276 l 1
 554 378 l 2
 558 381 563 382 567 382 c 0
 576 382 586 377 591 368 c 0
 594 363 595 358 595 353 c 0
 595 344 590 336 582 331 c 1
 421 256 l 1
 582 181 l 1
 590 176 595 168 595 159 c 0
 595 154 594 149 591 144 c 0
 586 135 576 130 567 130 c 0
 563 130 558 131 554 134 c 2
 409 236 l 1
 424 57 l 1
 424 43 411 32 397 32 c 0
 383 32 371 42 371 56 c 1
 385 236 l 1
 240 134 l 2
 236 131 230 130 226 130 c 0
 217 130 209 135 204 144 c 0
EndSplineSet
EndChar

StartChar: varobar
Encoding: 17 17 18
Width: 796
Flags: HMW
HStem: -84 41<377 377> 555 41<377 377 418 418>
VStem: 57 41<216 296 216 301> 377 41<-43 555 -43 555> 696 41<216 296>
LayerCount: 2
Fore
SplineSet
696 256 m 0
 696 336 664 412 609 468 c 0
 558 519 490 550 418 555 c 1
 418 -43 l 1
 490 -38 558 -7 609 44 c 0
 664 100 696 176 696 256 c 0
157 497 m 0
 220 560 307 596 397 596 c 0
 487 596 575 560 638 497 c 0
 701 434 737 346 737 256 c 0
 737 166 701 78 638 15 c 0
 575 -48 487 -84 397 -84 c 0
 307 -84 220 -48 157 15 c 0
 92 78 57 166 57 256 c 0
 57 346 92 434 157 497 c 0
98 256 m 0
 98 176 129 100 185 44 c 0
 236 -7 305 -38 377 -43 c 1
 377 555 l 1
 305 550 236 519 185 468 c 0
 129 412 98 336 98 256 c 0
EndSplineSet
EndChar

StartChar: varodot
Encoding: 18 18 19
Width: 796
Flags: HMW
HStem: -84 41<357 437 357 442> 555 41<357 437>
VStem: 57 41<216 296 216 301> 696 41<216 296>
LayerCount: 2
Fore
SplineSet
696 256 m 0
 696 336 664 412 609 468 c 0
 553 524 476 555 397 555 c 0
 317 555 241 524 185 468 c 0
 129 412 98 336 98 256 c 0
 98 176 129 100 185 44 c 0
 241 -12 317 -43 397 -43 c 0
 476 -43 553 -12 609 44 c 0
 664 100 696 176 696 256 c 0
157 497 m 0
 220 560 307 596 397 596 c 0
 487 596 575 560 638 497 c 0
 701 434 737 346 737 256 c 0
 737 166 701 78 638 15 c 0
 575 -48 487 -84 397 -84 c 0
 307 -84 220 -48 157 15 c 0
 92 78 57 166 57 256 c 0
 57 346 92 434 157 497 c 0
397 327 m 0
 415 327 434 318 446 306 c 0
 459 293 467 274 467 256 c 0
 467 238 459 219 446 206 c 0
 434 194 415 185 397 185 c 0
 379 185 360 194 347 206 c 1
 335 219 327 238 327 256 c 0
 327 274 335 293 347 306 c 1
 360 318 379 327 397 327 c 0
EndSplineSet
EndChar

StartChar: varoslash
Encoding: 19 19 20
Width: 796
Flags: HMW
HStem: -84 41<361 437 361 442> 555 41<357 434>
VStem: 57 41<220 296 220 301> 696 41<216 292>
LayerCount: 2
Fore
SplineSet
171 59 m 1
 594 481 l 1
 540 529 470 555 397 555 c 0
 317 555 241 524 185 468 c 0
 129 412 98 336 98 256 c 0
 98 183 124 113 171 59 c 1
157 497 m 0
 220 560 307 596 397 596 c 0
 487 596 575 560 638 497 c 0
 701 434 737 346 737 256 c 0
 737 166 701 78 638 15 c 0
 575 -48 487 -84 397 -84 c 0
 307 -84 220 -48 157 15 c 0
 92 78 57 166 57 256 c 0
 57 346 92 434 157 497 c 0
609 44 m 0
 664 100 696 176 696 256 c 0
 696 329 671 399 623 453 c 1
 201 31 l 1
 255 -17 324 -43 397 -43 c 0
 476 -43 553 -12 609 44 c 0
EndSplineSet
EndChar

StartChar: varobslash
Encoding: 20 20 21
Width: 796
Flags: HMW
HStem: -84 41<357 434 357 442> 555 41<361 437>
VStem: 57 41<216 292 216 301> 696 41<220 296>
LayerCount: 2
Fore
SplineSet
696 256 m 0
 696 336 664 412 609 468 c 0
 553 524 476 555 397 555 c 0
 324 555 255 529 201 481 c 1
 623 59 l 1
 671 113 696 183 696 256 c 0
157 497 m 0
 220 560 307 596 397 596 c 0
 487 596 575 560 638 497 c 0
 701 434 737 346 737 256 c 0
 737 166 701 78 638 15 c 0
 575 -48 487 -84 397 -84 c 0
 307 -84 220 -48 157 15 c 0
 92 78 57 166 57 256 c 0
 57 346 92 434 157 497 c 0
185 44 m 0
 241 -12 317 -43 397 -43 c 0
 470 -43 540 -17 594 31 c 1
 171 453 l 1
 124 399 98 329 98 256 c 0
 98 176 129 100 185 44 c 0
EndSplineSet
EndChar

StartChar: varocircle
Encoding: 21 21 22
Width: 796
Flags: HMW
HStem: -84 41<357 437 357 442> 76 41<379 416 379 421> 395 41<379 416> 555 41<357 437>
VStem: 57 41<216 296 216 301> 217 41<238 274 238 280> 537 41<238 274> 696 41<216 296>
LayerCount: 2
Fore
SplineSet
696 256 m 0
 696 336 664 412 609 468 c 0
 553 524 476 555 397 555 c 0
 317 555 241 524 185 468 c 0
 129 412 98 336 98 256 c 0
 98 176 129 100 185 44 c 0
 241 -12 317 -43 397 -43 c 0
 476 -43 553 -12 609 44 c 0
 664 100 696 176 696 256 c 0
157 497 m 0
 220 560 307 596 397 596 c 0
 487 596 575 560 638 497 c 0
 701 434 737 346 737 256 c 0
 737 166 701 78 638 15 c 0
 575 -48 487 -84 397 -84 c 0
 307 -84 220 -48 157 15 c 0
 92 78 57 166 57 256 c 0
 57 346 92 434 157 497 c 0
537 256 m 0
 537 293 523 328 497 354 c 0
 470 381 434 395 397 395 c 0
 360 395 325 381 299 355 c 0
 272 328 258 293 258 256 c 0
 258 219 272 184 298 158 c 0
 325 131 360 117 397 117 c 0
 434 117 470 131 496 157 c 0
 523 184 537 219 537 256 c 0
269 384 m 0
 303 418 349 436 397 436 c 0
 445 436 490 418 525 384 c 0
 559 350 578 304 578 256 c 0
 578 208 559 162 525 128 c 0
 490 94 445 76 397 76 c 0
 349 76 303 94 269 128 c 0
 235 162 217 208 217 256 c 0
 217 304 235 350 269 384 c 0
EndSplineSet
EndChar

StartChar: varoplus
Encoding: 22 22 23
Width: 796
Flags: HMW
HStem: -84 41<377 377> 236 41<98 377 98 377 418 696> 555 41<377 377 418 418>
VStem: 57 41<236 236> 377 41<-43 236 276 555> 696 41<236 236 276 276>
LayerCount: 2
Fore
SplineSet
696 276 m 1
 691 348 660 417 609 468 c 0
 558 519 490 550 418 555 c 1
 418 276 l 1
 696 276 l 1
157 497 m 0
 220 560 307 596 397 596 c 0
 487 596 575 560 638 497 c 0
 701 434 737 346 737 256 c 0
 737 166 701 78 638 15 c 0
 575 -48 487 -84 397 -84 c 0
 307 -84 220 -48 157 15 c 0
 92 78 57 166 57 256 c 0
 57 346 92 434 157 497 c 0
418 -43 m 1
 490 -38 558 -7 609 44 c 0
 660 95 691 164 696 236 c 1
 418 236 l 1
 418 -43 l 1
98 236 m 1
 103 164 134 95 185 44 c 0
 236 -7 305 -38 377 -43 c 1
 377 236 l 1
 98 236 l 1
377 555 m 1
 305 550 236 519 185 468 c 0
 134 417 103 348 98 276 c 1
 377 276 l 1
 377 555 l 1
EndSplineSet
EndChar

StartChar: varominus
Encoding: 23 23 24
Width: 796
Flags: HMW
HStem: -84 41<357 437 357 442> 236 41<98 696 98 696> 555 41<357 437>
VStem: 57 41<236 236> 696 41<236 236 276 276>
LayerCount: 2
Fore
SplineSet
696 276 m 1
 691 348 660 417 609 468 c 0
 553 524 476 555 397 555 c 0
 317 555 241 524 185 468 c 0
 134 417 103 348 98 276 c 1
 696 276 l 1
157 497 m 0
 220 560 307 596 397 596 c 0
 487 596 575 560 638 497 c 0
 701 434 737 346 737 256 c 0
 737 166 701 78 638 15 c 0
 575 -48 487 -84 397 -84 c 0
 307 -84 220 -48 157 15 c 0
 92 78 57 166 57 256 c 0
 57 346 92 434 157 497 c 0
397 -43 m 0
 476 -43 553 -12 609 44 c 0
 660 95 691 164 696 236 c 1
 98 236 l 1
 103 164 134 95 185 44 c 0
 241 -12 317 -43 397 -43 c 0
EndSplineSet
EndChar

StartChar: boxast
Encoding: 24 24 25
Width: 796
Flags: HMW
HStem: -56 41<100 668 126 668 126 689> 527 41<126 668 126 126>
VStem: 85 41<-15 527 -15 548 -15 553> 370 54 668 41<-15 527 527 527>
LayerCount: 2
Fore
SplineSet
85 -36 m 2
 85 548 l 2
 85 559 94 568 105 568 c 2
 689 568 l 2
 700 568 709 559 709 548 c 2
 709 -36 l 2
 709 -47 700 -56 689 -56 c 2
 105 -56 l 2
 94 -56 85 -47 85 -36 c 2
668 -15 m 1
 668 527 l 1
 126 527 l 1
 126 -15 l 1
 668 -15 l 1
220 154 m 0
 218 158 217 163 217 168 c 0
 217 177 221 186 230 190 c 2
 374 256 l 1
 230 322 l 2
 221 326 217 335 217 344 c 0
 217 349 218 354 220 358 c 0
 225 366 235 373 244 373 c 0
 249 373 253 371 257 368 c 2
 385 276 l 1
 371 436 l 1
 371 449 383 460 397 460 c 0
 411 460 424 449 424 436 c 1
 410 276 l 1
 538 368 l 2
 542 371 546 373 551 373 c 0
 560 373 568 366 573 358 c 0
 576 353 578 349 578 344 c 0
 578 335 572 326 564 322 c 2
 421 256 l 1
 564 190 l 2
 572 186 578 177 578 168 c 0
 578 163 576 159 573 154 c 0
 568 146 560 139 551 139 c 0
 546 139 542 141 538 144 c 2
 410 236 l 1
 424 76 l 1
 424 63 411 52 397 52 c 0
 383 52 371 63 371 76 c 1
 385 236 l 1
 257 144 l 2
 253 141 249 139 244 139 c 0
 235 139 225 146 220 154 c 0
EndSplineSet
EndChar

StartChar: boxbar
Encoding: 25 25 26
Width: 796
Flags: HMW
HStem: -56 41<100 377 126 377 418 668> 527 41<126 377 126 126 418 418 418 668>
VStem: 85 41<-15 527 -15 548 -15 553> 377 41<-15 527 -15 527> 668 41<-15 527 527 527>
LayerCount: 2
Fore
SplineSet
85 -36 m 2
 85 548 l 2
 85 559 94 568 105 568 c 2
 689 568 l 2
 700 568 709 559 709 548 c 2
 709 -36 l 2
 709 -47 700 -56 689 -56 c 2
 105 -56 l 2
 94 -56 85 -47 85 -36 c 2
377 -15 m 1
 377 527 l 1
 126 527 l 1
 126 -15 l 1
 377 -15 l 1
668 -15 m 1
 668 527 l 1
 418 527 l 1
 418 -15 l 1
 668 -15 l 1
EndSplineSet
EndChar

StartChar: boxdot
Encoding: 26 26 27
Width: 796
Flags: HMW
HStem: -56 41<100 668 126 668 126 689> 527 41<126 668 126 126>
VStem: 85 41<-15 527 -15 548 -15 553> 668 41<-15 527 527 527>
LayerCount: 2
Fore
SplineSet
85 -36 m 2
 85 548 l 2
 85 559 94 568 105 568 c 2
 689 568 l 2
 700 568 709 559 709 548 c 2
 709 -36 l 2
 709 -47 700 -56 689 -56 c 2
 105 -56 l 2
 94 -56 85 -47 85 -36 c 2
668 -15 m 1
 668 527 l 1
 126 527 l 1
 126 -15 l 1
 668 -15 l 1
397 327 m 0
 415 327 434 318 446 306 c 0
 459 293 467 274 467 256 c 0
 467 238 459 219 446 206 c 0
 434 194 415 185 397 185 c 0
 379 185 360 194 347 206 c 1
 335 219 327 238 327 256 c 0
 327 274 335 293 347 306 c 1
 360 318 379 327 397 327 c 0
EndSplineSet
EndChar

StartChar: boxslash
Encoding: 27 27 28
Width: 796
Flags: HMW
HStem: -56 41<156 668 156 689> 527 41<126 639 126 126>
VStem: 85 41<14 14 14 527> 668 41<-15 498 498 498>
LayerCount: 2
Fore
SplineSet
85 -36 m 2
 85 548 l 2
 85 559 94 568 105 568 c 2
 689 568 l 2
 694 568 699 566 703 562 c 0
 706 558 709 553 709 548 c 2
 709 -36 l 2
 709 -47 700 -56 689 -56 c 2
 105 -56 l 2
 94 -56 85 -47 85 -36 c 2
126 14 m 1
 639 527 l 1
 126 527 l 1
 126 14 l 1
156 -15 m 1
 668 -15 l 1
 668 498 l 1
 156 -15 l 1
EndSplineSet
EndChar

StartChar: boxbslash
Encoding: 28 28 29
Width: 796
Flags: HMW
HStem: -56 41<100 639 126 639 126 689> 527 41<156 668 156 156>
VStem: 85 41<-15 498 -15 548> 668 41<14 527 527 527>
LayerCount: 2
Fore
SplineSet
85 -36 m 2
 85 548 l 2
 85 553 87 558 91 562 c 0
 95 566 100 568 105 568 c 2
 689 568 l 2
 700 568 709 559 709 548 c 2
 709 -36 l 2
 709 -47 700 -56 689 -56 c 2
 105 -56 l 2
 94 -56 85 -47 85 -36 c 2
668 14 m 1
 668 527 l 1
 156 527 l 1
 668 14 l 1
126 498 m 1
 126 -15 l 1
 639 -15 l 1
 126 498 l 1
EndSplineSet
EndChar

StartChar: boxcircle
Encoding: 29 29 30
Width: 796
Flags: HMW
HStem: -56 41<100 668 126 668 126 689> 111 41<383 411 383 417> 360 41<383 411> 527 41<126 668 126 126>
VStem: 85 41<-15 527 -15 548 -15 553> 252 41<242 270 242 275> 502 41<242 270> 668 41<-15 527 527 527>
LayerCount: 2
Fore
SplineSet
502 256 m 0
 502 284 490 311 471 330 c 0
 452 349 425 360 397 360 c 0
 369 360 343 349 324 330 c 0
 304 311 293 284 293 256 c 0
 293 228 304 201 324 182 c 0
 343 163 369 152 397 152 c 0
 425 152 452 163 471 182 c 0
 490 201 502 228 502 256 c 0
294 359 m 1
 322 386 358 401 397 401 c 0
 436 401 473 386 500 359 c 0
 528 331 543 295 543 256 c 0
 543 217 528 181 501 154 c 0
 473 126 436 111 397 111 c 0
 358 111 322 126 295 153 c 0
 267 181 252 217 252 256 c 0
 252 295 267 331 294 359 c 1
85 -36 m 2
 85 548 l 2
 85 559 94 568 105 568 c 2
 689 568 l 2
 700 568 709 559 709 548 c 2
 709 -36 l 2
 709 -47 700 -56 689 -56 c 2
 105 -56 l 2
 94 -56 85 -47 85 -36 c 2
668 -15 m 1
 668 527 l 1
 126 527 l 1
 126 -15 l 1
 668 -15 l 1
EndSplineSet
EndChar

StartChar: boxbox
Encoding: 30 30 31
Width: 796
Flags: HMW
HStem: -56 41<100 668 126 668 126 689> 119 41<275 494 301 494 301 514> 352 41<301 494 301 301> 527 41<126 668 126 126>
VStem: 85 41<-15 527 -15 548 -15 553> 260 41<160 352 160 373 160 378> 494 41<160 352 352 352> 668 41<-15 527 527 527>
LayerCount: 2
Fore
SplineSet
85 -36 m 2
 85 548 l 2
 85 559 94 568 105 568 c 2
 689 568 l 2
 700 568 709 559 709 548 c 2
 709 -36 l 2
 709 -47 700 -56 689 -56 c 2
 105 -56 l 2
 94 -56 85 -47 85 -36 c 2
668 -15 m 1
 668 527 l 1
 126 527 l 1
 126 -15 l 1
 668 -15 l 1
260 139 m 2
 260 373 l 2
 260 384 270 393 281 393 c 2
 514 393 l 2
 525 393 535 384 535 373 c 2
 535 139 l 2
 535 128 525 119 514 119 c 2
 281 119 l 2
 270 119 260 128 260 139 c 2
494 160 m 1
 494 352 l 1
 301 352 l 1
 301 160 l 1
 494 160 l 1
EndSplineSet
EndChar

StartChar: boxempty
Encoding: 31 31 32
Width: 796
Flags: HMW
HStem: -56 41<100 668 126 668 126 689> 527 41<126 668 126 126>
VStem: 85 41<-15 527 -15 548 -15 553> 668 41<-15 527 527 527>
LayerCount: 2
Fore
SplineSet
85 -36 m 2
 85 548 l 2
 85 559 94 568 105 568 c 2
 689 568 l 2
 700 568 709 559 709 548 c 2
 709 -36 l 2
 709 -47 700 -56 689 -56 c 2
 105 -56 l 2
 94 -56 85 -47 85 -36 c 2
668 -15 m 1
 668 527 l 1
 126 527 l 1
 126 -15 l 1
 668 -15 l 1
EndSplineSet
EndChar

StartChar: lightning
Encoding: 32 32 33
Width: 625
Flags: HMW
HStem: -199 22<180 183> -111 30<357 407 396 404> 690 20G<373 378>
LayerCount: 2
Fore
SplineSet
173 -196 m 0
 171 -194 170 -190 170 -187 c 0
 170 -108 138 -31 80 23 c 0
 78 25 77 28 77 31 c 0
 77 33 77 34 78 36 c 2
 81 43 l 2
 83 48 87 50 91 50 c 0
 94 50 97 49 99 47 c 0
 144 4 176 -52 191 -111 c 1
 350 272 l 1
 191 207 l 2
 188 206 186 205 183 205 c 0
 180 205 177 206 175 207 c 0
 167 210 163 218 163 226 c 0
 163 228 163 231 164 233 c 2
 357 698 l 2
 360 706 369 711 377 711 c 0
 379 711 382 711 384 710 c 0
 392 707 396 698 396 690 c 0
 396 688 396 685 395 683 c 2
 221 264 l 1
 381 330 l 2
 383 331 385 331 388 331 c 0
 390 331 393 331 396 330 c 0
 404 326 409 318 409 310 c 0
 409 307 409 305 408 302 c 2
 229 -127 l 1
 278 -97 337 -81 396 -81 c 2
 407 -81 l 2
 414 -81 418 -86 418 -92 c 1
 413 -104 l 2
 412 -107 408 -111 404 -111 c 2
 395 -111 l 2
 318 -111 243 -142 189 -196 c 0
 187 -198 184 -199 181 -199 c 0
 178 -199 176 -198 173 -196 c 0
EndSplineSet
EndChar

StartChar: merge
Encoding: 33 33 34
Width: 910
Flags: HMW
HStem: 0 22<82 87 341 347 562 567 821 826> 734 20G<321 326 583 588>
LayerCount: 2
Fore
SplineSet
102 14 m 2
 100 5 91 0 83 0 c 0
 81 0 79 0 77 1 c 0
 68 4 62 12 62 20 c 0
 62 22 62 26 63 28 c 2
 305 740 l 2
 307 749 317 755 325 755 c 0
 327 755 329 755 331 754 c 0
 337 752 342 746 344 740 c 2
 454 414 l 1
 564 740 l 2
 566 746 572 752 578 754 c 0
 580 755 582 755 584 755 c 0
 592 755 601 749 603 740 c 2
 845 28 l 2
 846 26 846 24 846 22 c 0
 846 13 840 4 831 1 c 0
 829 0 827 0 825 0 c 0
 817 0 808 5 806 14 c 2
 584 670 l 1
 476 350 l 1
 585 28 l 2
 586 26 586 22 586 20 c 0
 586 12 580 4 572 1 c 0
 570 0 568 0 566 0 c 0
 557 0 549 5 546 14 c 2
 454 286 l 1
 362 14 l 2
 359 5 351 0 342 0 c 0
 340 0 338 0 336 1 c 0
 328 4 323 12 323 20 c 0
 323 22 323 26 324 28 c 2
 432 350 l 1
 325 670 l 1
 102 14 l 2
EndSplineSet
EndChar

StartChar: vartimes
Encoding: 34 34 35
Width: 569
Flags: HMW
HStem: 0 22<75 80 486 492> 690 20G<76 81 486 492>
LayerCount: 2
Fore
SplineSet
59 680 m 2
 57 683 56 686 56 690 c 0
 56 697 60 705 67 708 c 0
 70 710 74 711 78 711 c 0
 85 711 91 707 95 701 c 2
 284 395 l 1
 472 701 l 2
 476 707 482 711 489 711 c 0
 493 711 497 710 501 708 c 0
 507 705 510 698 510 691 c 0
 510 687 509 683 507 680 c 2
 307 355 l 1
 507 32 l 2
 509 28 510 24 510 20 c 0
 510 13 507 7 501 3 c 0
 498 1 493 0 489 0 c 0
 482 0 476 3 472 10 c 2
 284 316 l 1
 95 10 l 2
 91 3 84 0 77 0 c 0
 73 0 70 1 67 3 c 0
 60 7 56 13 56 20 c 0
 56 24 57 29 59 32 c 2
 259 355 l 1
 59 680 l 2
EndSplineSet
EndChar

StartChar: fatsemi
Encoding: 35 35 36
Width: 340
Flags: HMW
HStem: -199 22<131 136> 0 41<150 179> 185 41<150 189> 350 41<150 189 150 201> 535 41<150 189>
VStem: 56 41<93 133 93 144 443 483> 242 41<93 133 443 483>
LayerCount: 2
Fore
SplineSet
97 463 m 0
 97 423 130 391 170 391 c 0
 209 391 242 423 242 463 c 0
 242 503 209 535 170 535 c 0
 130 535 97 503 97 463 c 0
170 575 m 0
 232 575 283 525 283 463 c 0
 283 401 232 350 170 350 c 0
 108 350 56 401 56 463 c 0
 56 525 108 575 170 575 c 0
97 113 m 0
 97 74 130 41 170 41 c 0
 209 41 242 74 242 113 c 0
 242 153 209 185 170 185 c 0
 130 185 97 153 97 113 c 0
117 -167 m 0
 160 -108 199 -49 223 13 c 1
 207 5 188 0 170 0 c 0
 108 0 56 51 56 113 c 0
 56 175 108 226 170 226 c 0
 232 226 283 175 283 113 c 0
 283 -4 213 -103 151 -190 c 0
 147 -196 139 -199 133 -199 c 0
 129 -199 125 -198 122 -196 c 0
 116 -192 114 -184 114 -178 c 0
 114 -174 115 -170 117 -167 c 0
EndSplineSet
EndChar

StartChar: ssearrow
Encoding: 36 36 37
Width: 625
Flags: HMW
HStem: -199 22<180 183> -111 30<357 411 396 404> 691 20G<542 551>
LayerCount: 2
Fore
SplineSet
189 -196 m 0
 187 -198 184 -199 181 -199 c 0
 178 -199 175 -198 173 -196 c 0
 171 -194 170 -190 170 -187 c 0
 170 -108 138 -31 80 23 c 0
 78 25 77 28 77 31 c 0
 77 33 77 34 78 36 c 2
 81 43 l 2
 81 45 82 46 83 47 c 0
 85 49 88 50 91 50 c 0
 94 50 96 49 99 47 c 0
 144 4 176 -52 191 -111 c 1
 527 698 l 2
 531 707 539 712 546 712 c 0
 556 712 567 702 567 691 c 0
 567 688 566 686 565 683 c 2
 229 -127 l 1
 278 -97 337 -81 396 -81 c 2
 411 -81 l 1
 415 -83 418 -89 418 -93 c 1
 413 -104 l 2
 412 -107 408 -111 404 -111 c 2
 395 -111 l 2
 318 -111 243 -142 189 -196 c 0
EndSplineSet
EndChar

StartChar: curlywedgeuparrow
Encoding: 37 37 38
Width: 625
Flags: HMW
HStem: -199 22<441 444> -111 30<218 219 219 227 227 228> 691 20G<73 81>
LayerCount: 2
Fore
SplineSet
451 -196 m 0
 449 -198 445 -199 442 -199 c 0
 439 -199 436 -198 434 -196 c 0
 380 -142 305 -111 228 -111 c 2
 219 -111 l 2
 216 -111 213 -107 211 -104 c 2
 208 -96 l 2
 207 -94 207 -93 207 -91 c 0
 207 -86 212 -81 217 -81 c 2
 227 -81 l 2
 286 -81 345 -97 394 -127 c 1
 58 683 l 2
 57 686 56 688 56 691 c 0
 56 702 68 712 78 712 c 0
 85 712 92 707 96 698 c 2
 432 -111 l 1
 447 -52 479 4 524 47 c 0
 526 49 529 50 532 50 c 0
 535 50 539 49 541 47 c 0
 542 46 543 45 543 43 c 2
 547 36 l 1
 547 32 l 2
 547 29 546 26 544 23 c 0
 487 -31 454 -108 454 -187 c 0
 454 -190 453 -194 451 -196 c 0
EndSplineSet
EndChar

StartChar: sswarrow
Encoding: 38 38 39
Width: 683
Flags: HMW
HStem: -199 22<17 23 658 664> 705 20G<338 341>
VStem: 318 43<637 637>
LayerCount: 2
Fore
SplineSet
351 718 m 0
 381 644 440 586 514 557 c 0
 519 556 522 552 522 547 c 1
 521 551 521 552 521 552 c 1
 521 552 522 550 522 547 c 2
 522 539 l 2
 522 533 517 527 511 527 c 2
 507 527 l 1
 449 550 398 588 361 637 c 1
 370 328 439 20 673 -163 c 0
 678 -166 681 -172 681 -178 c 0
 681 -183 679 -187 676 -191 c 0
 673 -196 666 -199 660 -199 c 0
 656 -199 651 -198 647 -195 c 0
 460 -49 375 171 340 403 c 1
 306 171 221 -49 33 -195 c 0
 30 -198 24 -199 20 -199 c 0
 14 -199 8 -196 4 -191 c 0
 1 -187 0 -183 0 -179 c 0
 0 -173 3 -167 8 -163 c 0
 241 20 309 328 318 637 c 1
 281 588 232 550 174 527 c 1
 170 527 l 2
 166 527 161 530 160 535 c 0
 159 536 159 537 159 539 c 2
 159 547 l 2
 159 552 162 556 166 557 c 0
 241 586 300 644 330 718 c 0
 332 722 336 725 341 725 c 1
 345 724 l 2
 347 723 350 720 351 718 c 0
EndSplineSet
EndChar

StartChar: curlywedgedownarrow
Encoding: 39 39 40
Width: 683
Flags: HMW
HStem: -230 22<432 434> -188 30G<79 88 88 118 588 602> 714 20G<334 346>
VStem: 39 31<-50 -25> 319 41<559 719> 611 30<-53 -26 -65 -24>
LayerCount: 2
Fore
SplineSet
14 -199 m 1
 11 -199 l 2
 9 -199 7 -199 6 -198 c 0
 3 -196 1 -193 0 -190 c 0
 0 -187 0 -184 1 -182 c 0
 27 -138 39 -88 39 -39 c 0
 39 -10 35 17 27 45 c 1
 27 49 l 2
 27 53 28 55 31 57 c 2
 37 63 l 2
 39 64 41 66 44 66 c 0
 47 66 51 64 53 61 c 2
 55 57 l 1
 64 26 70 -5 70 -37 c 0
 70 -64 65 -91 59 -118 c 1
 269 85 319 404 319 714 c 0
 319 725 329 734 340 734 c 0
 351 734 360 725 360 714 c 0
 360 404 411 85 621 -118 c 1
 615 -92 611 -67 611 -40 c 0
 611 -7 617 25 626 57 c 0
 627 62 632 66 637 66 c 0
 639 66 641 64 643 63 c 2
 650 57 l 2
 652 55 654 52 654 48 c 2
 654 45 l 1
 646 17 641 -11 641 -40 c 0
 641 -89 654 -138 679 -182 c 0
 680 -183 681 -184 681 -186 c 2
 680 -190 l 2
 679 -193 678 -196 675 -198 c 0
 674 -199 672 -199 670 -199 c 2
 667 -199 l 1
 641 -192 615 -188 589 -188 c 0
 537 -188 485 -201 439 -229 c 0
 437 -230 435 -230 433 -230 c 0
 431 -230 428 -230 426 -228 c 2
 420 -223 l 2
 417 -221 416 -218 416 -215 c 0
 416 -213 416 -210 418 -208 c 2
 421 -205 l 1
 471 -174 530 -159 588 -159 c 2
 604 -159 l 1
 446 -14 372 189 340 403 c 1
 308 189 235 -15 77 -159 c 1
 88 -159 l 2
 147 -159 207 -173 260 -205 c 0
 263 -207 265 -211 265 -215 c 0
 265 -217 265 -218 264 -220 c 2
 261 -223 l 1
 257 -225 l 1
 255 -229 252 -231 248 -231 c 0
 246 -231 244 -230 242 -229 c 0
 196 -201 144 -188 92 -188 c 0
 66 -188 40 -192 14 -199 c 1
EndSplineSet
EndChar

StartChar: fatslash
Encoding: 40 40 41
Width: 739
Flags: HMW
HStem: -256 41<301 521 336 521 336 536> 727 41<675 675 675 860>
LayerCount: 2
Fore
SplineSet
306 -256 m 2
 295 -256 286 -247 286 -236 c 1
 287 -228 l 1
 641 755 l 2
 644 763 652 768 660 768 c 2
 889 768 l 2
 901 768 910 759 910 748 c 0
 910 746 909 742 908 740 c 2
 555 -243 l 2
 552 -250 545 -256 536 -256 c 2
 306 -256 l 2
675 727 m 1
 336 -215 l 1
 521 -215 l 1
 860 727 l 1
 675 727 l 1
EndSplineSet
EndChar

StartChar: fatbslash
Encoding: 41 41 42
Width: 739
Flags: HMW
HStem: -256 41<427 631 445 631 445 660> 727 41<106 106 106 292>
LayerCount: 2
Fore
SplineSet
681 -236 m 1
 681 -247 671 -256 660 -256 c 2
 431 -256 l 2
 423 -256 415 -251 412 -243 c 2
 58 740 l 2
 57 742 56 746 56 748 c 0
 56 756 62 764 71 767 c 0
 73 768 75 768 77 768 c 2
 306 768 l 2
 315 768 323 762 326 755 c 2
 680 -228 l 1
 681 -236 l 1
106 727 m 1
 445 -215 l 1
 631 -215 l 1
 292 727 l 1
 106 727 l 1
EndSplineSet
EndChar

StartChar: lbag
Encoding: 42 42 43
Width: 454
Flags: HMW
HStem: -256 41<312 381 312 381> 727 41<156 199>
VStem: 144 41<-105 51> 256 41<550 674>
LayerCount: 2
Fore
SplineSet
97 653 m 0
 97 642 87 634 76 634 c 0
 65 635 56 645 56 656 c 0
 61 718 114 768 177 768 c 0
 240 768 297 720 297 654 c 0
 297 446 185 155 185 -45 c 0
 185 -165 248 -215 376 -215 c 0
 387 -215 396 -225 396 -236 c 0
 396 -247 387 -256 376 -256 c 0
 198 -256 144 -175 144 -51 c 0
 144 153 256 401 256 654 c 0
 256 694 220 727 177 727 c 0
 135 727 100 694 97 653 c 0
EndSplineSet
EndChar

StartChar: rbag
Encoding: 43 43 44
Width: 454
Flags: HMW
HStem: -256 41<71 140 71 167> 727 41<254 297>
VStem: 157 41<548 674 528 687> 268 41
LayerCount: 2
Fore
SplineSet
396 656 m 1
 396 654 l 2
 396 644 388 635 377 634 c 0
 366 634 356 642 355 653 c 0
 352 694 317 727 276 727 c 0
 232 727 198 694 198 654 c 0
 198 402 309 154 309 -49 c 0
 309 -175 257 -256 77 -256 c 0
 66 -256 56 -247 56 -236 c 0
 56 -225 66 -215 77 -215 c 0
 203 -215 264 -170 268 -53 c 1
 264 147 157 442 157 654 c 0
 157 720 213 768 276 768 c 0
 339 768 392 718 396 656 c 1
EndSplineSet
EndChar

StartChar: varbigcirc
Encoding: 44 44 45
Width: 1024
Flags: HMW
HStem: -199 42<456 566 456 571> 669 42<456 566>
VStem: 56 42<201 311 201 316> 924 42<201 311>
LayerCount: 2
Fore
SplineSet
924 256 m 0
 924 366 881 471 804 548 c 0
 726 626 621 669 511 669 c 0
 401 669 296 626 219 549 c 0
 141 471 98 366 98 256 c 0
 98 146 141 41 218 -36 c 0
 296 -114 401 -157 511 -157 c 0
 621 -157 726 -114 803 -37 c 0
 881 41 924 146 924 256 c 0
189 578 m 1
 275 663 390 711 511 711 c 0
 632 711 746 663 831 578 c 0
 917 492 966 377 966 256 c 0
 966 135 918 20 833 -65 c 0
 747 -151 632 -199 511 -199 c 0
 390 -199 275 -151 190 -66 c 0
 104 20 56 135 56 256 c 0
 56 377 104 492 189 578 c 1
EndSplineSet
EndChar

StartChar: leftrightarroweq
Encoding: 45 45 46
Width: 796
Flags: HMW
HStem: 135 41<71 215 77 215 233 561 580 717> 336 41<128 666 128 666> 518 20G<220 228 228 231 566 574 574 577>
LayerCount: 2
Fore
SplineSet
585 531 m 0
 614 456 671 398 744 368 c 0
 747 367 750 363 751 361 c 0
 752 359 752 358 752 356 c 0
 752 355 752 353 751 352 c 0
 750 349 747 347 744 346 c 0
 671 315 614 256 585 182 c 0
 584 179 582 177 580 176 c 1
 717 176 l 2
 728 176 737 167 737 156 c 0
 737 145 728 135 717 135 c 2
 77 135 l 2
 66 135 56 145 56 156 c 0
 56 167 66 176 77 176 c 2
 215 176 l 1
 212 177 210 179 209 182 c 0
 181 256 123 315 49 346 c 0
 47 347 45 349 43 352 c 1
 42 356 l 1
 42 361 45 366 49 368 c 0
 123 398 181 456 209 531 c 0
 211 535 215 539 220 539 c 2
 228 539 l 2
 234 539 240 533 240 527 c 0
 240 526 240 524 239 523 c 0
 217 465 178 414 128 377 c 1
 666 377 l 1
 617 414 578 465 555 523 c 1
 555 527 l 2
 555 533 560 539 566 539 c 2
 574 539 l 2
 579 539 584 535 585 531 c 0
561 176 m 1
 557 177 555 181 555 186 c 2
 555 190 l 1
 578 248 617 299 666 336 c 1
 128 336 l 1
 178 299 217 248 239 190 c 0
 240 188 240 187 240 186 c 0
 240 182 237 178 233 176 c 1
 561 176 l 1
EndSplineSet
EndChar

StartChar: curlyveedownarrow
Encoding: 46 46 47
Width: 683
Flags: HMW
HStem: -213 22<338 341> 690 20G<17 23 658 664>
VStem: 318 43<-125 -125>
LayerCount: 2
Fore
SplineSet
522 -35 m 2
 522 -40 519 -44 514 -45 c 0
 440 -74 381 -132 351 -206 c 0
 350 -208 347 -211 345 -212 c 2
 341 -213 l 1
 336 -213 332 -210 330 -206 c 0
 300 -132 241 -74 166 -45 c 0
 162 -44 159 -40 159 -35 c 2
 159 -27 l 2
 159 -21 164 -15 170 -15 c 2
 174 -15 l 1
 232 -38 281 -76 318 -125 c 1
 309 184 241 492 8 675 c 0
 3 679 0 685 0 691 c 0
 0 695 1 699 4 703 c 0
 8 708 14 711 20 711 c 0
 24 711 30 710 33 707 c 0
 221 561 306 341 340 109 c 1
 375 341 460 561 647 707 c 0
 651 710 656 711 660 711 c 0
 666 711 673 708 676 703 c 0
 679 699 681 695 681 690 c 0
 681 684 678 678 673 675 c 0
 439 492 370 184 361 -125 c 1
 398 -76 449 -38 507 -15 c 1
 511 -15 l 2
 516 -15 522 -20 522 -27 c 2
 522 -35 l 2
EndSplineSet
EndChar

StartChar: curlyveeuparrow
Encoding: 47 47 48
Width: 683
Flags: HMW
HStem: -222 22<334 346> 671 30<79 92 77 118 563 588 588 602> 723 20G<246 248 433 435>
VStem: 40 30<537 562 533 575> 319 41<-207 -47> 611 30<538 565>
LayerCount: 2
Fore
SplineSet
0 702 m 0
 1 705 3 709 6 710 c 0
 7 711 8 712 10 712 c 2
 14 711 l 2
 40 704 66 700 92 700 c 0
 144 700 196 713 242 741 c 0
 244 742 245 743 247 743 c 0
 250 743 252 742 254 740 c 2
 261 735 l 2
 263 733 265 729 265 726 c 0
 265 724 265 722 263 720 c 2
 260 717 l 1
 209 686 150 671 92 671 c 2
 77 671 l 1
 235 526 308 323 340 109 c 1
 372 323 446 526 604 671 c 1
 588 671 l 2
 530 671 471 686 421 717 c 1
 418 720 l 2
 416 722 416 725 416 727 c 0
 416 730 417 733 420 735 c 2
 426 740 l 2
 428 742 431 743 434 743 c 0
 436 743 437 742 439 741 c 0
 485 713 537 700 589 700 c 0
 615 700 641 704 667 711 c 1
 670 712 l 2
 672 712 673 711 675 710 c 0
 678 709 679 705 680 702 c 2
 681 698 l 2
 681 696 680 695 679 694 c 0
 654 650 641 601 641 552 c 0
 641 523 646 495 654 467 c 1
 654 463 l 2
 654 459 653 457 650 455 c 2
 643 449 l 2
 641 448 639 446 637 446 c 0
 634 446 630 448 628 451 c 0
 627 452 626 454 626 455 c 0
 617 487 611 519 611 552 c 0
 611 579 615 604 621 630 c 1
 411 427 360 108 360 -202 c 0
 360 -213 351 -222 340 -222 c 0
 329 -222 319 -213 319 -202 c 0
 319 108 269 427 59 630 c 1
 65 603 70 576 70 549 c 0
 70 517 64 486 55 455 c 0
 53 450 49 446 44 446 c 0
 42 446 39 448 37 449 c 2
 31 455 l 2
 28 457 27 459 27 463 c 2
 27 467 l 1
 35 495 40 522 40 551 c 0
 40 600 27 650 1 694 c 0
 0 697 0 700 0 702 c 0
EndSplineSet
EndChar

StartChar: nnwarrow
Encoding: 48 48 49
Width: 625
Flags: HMW
HStem: -200 22<542 551> 593 30<395 396 396 404 404 407> 690 20G<180 183>
LayerCount: 2
Fore
SplineSet
173 708 m 0
 175 710 178 711 181 711 c 0
 184 711 187 710 189 708 c 0
 243 654 318 623 395 623 c 2
 404 623 l 2
 408 623 412 619 413 616 c 2
 417 608 l 1
 417 602 l 2
 417 597 412 593 407 593 c 2
 396 593 l 2
 337 593 278 609 229 639 c 1
 565 -171 l 2
 566 -174 567 -176 567 -179 c 0
 567 -190 556 -200 546 -200 c 0
 539 -200 531 -195 527 -186 c 2
 191 623 l 1
 176 564 144 508 99 465 c 0
 96 463 94 462 91 462 c 0
 88 462 85 463 83 465 c 0
 82 466 81 467 81 469 c 2
 78 476 l 2
 77 478 77 479 77 481 c 0
 77 484 78 486 80 489 c 0
 138 543 170 620 170 699 c 0
 170 702 171 706 173 708 c 0
EndSplineSet
EndChar

StartChar: nnearrow
Encoding: 49 49 50
Width: 625
Flags: HMW
HStem: -200 22<73 81> 593 30<215 228 219 227> 690 20G<441 445>
LayerCount: 2
Fore
SplineSet
221 623 m 1
 219 622 218 622 217 622 c 2
 216 622 l 1
 216 622 217 623 219 623 c 2
 228 623 l 2
 305 623 380 654 434 708 c 0
 436 710 439 711 442 711 c 0
 448 711 454 705 454 699 c 0
 454 620 487 543 544 489 c 0
 546 487 547 484 547 480 c 2
 547 476 l 1
 543 469 l 2
 543 467 542 466 541 465 c 0
 539 463 535 462 532 462 c 0
 529 462 526 463 524 465 c 0
 479 508 447 564 432 623 c 1
 96 -186 l 2
 92 -195 85 -200 78 -200 c 0
 68 -200 56 -190 56 -179 c 0
 56 -176 57 -174 58 -171 c 2
 394 639 l 1
 345 609 286 593 227 593 c 2
 217 593 l 2
 212 593 207 598 207 603 c 0
 207 605 207 606 208 608 c 2
 211 616 l 2
 212 619 215 623 219 623 c 2
 221 623 l 1
EndSplineSet
EndChar

StartChar: leftslice
Encoding: 50 50 51
Width: 796
Flags: HMW
HStem: 9 22<622 626> 482 20G<622 626>
VStem: 696 41<219 293>
LayerCount: 2
Fore
SplineSet
58 264 m 0
 60 269 65 273 70 275 c 2
 615 501 l 2
 618 502 621 503 624 503 c 0
 629 503 634 501 638 497 c 0
 701 434 737 346 737 256 c 0
 737 166 701 78 638 15 c 0
 634 11 629 9 624 9 c 0
 621 9 618 10 615 11 c 2
 70 237 l 2
 65 239 60 243 58 248 c 0
 57 250 56 253 56 256 c 0
 56 259 57 261 58 264 c 0
696 256 m 0
 696 331 668 403 618 458 c 1
 131 256 l 1
 618 54 l 1
 668 109 696 181 696 256 c 0
EndSplineSet
EndChar

StartChar: rightslice
Encoding: 51 51 52
Width: 796
Flags: HMW
HStem: 9 22<167 172> 482 20G<167 172>
VStem: 57 41<219 293 219 301>
LayerCount: 2
Fore
SplineSet
725 237 m 2
 179 11 l 2
 176 10 173 9 170 9 c 0
 165 9 160 11 157 15 c 0
 92 78 57 166 57 256 c 0
 57 346 92 434 157 497 c 0
 160 501 165 503 170 503 c 0
 173 503 176 502 179 501 c 2
 725 275 l 2
 730 273 734 269 736 264 c 0
 737 261 737 259 737 256 c 0
 737 253 737 250 736 248 c 0
 734 244 730 240 725 237 c 2
98 256 m 0
 98 181 126 109 176 54 c 1
 664 256 l 1
 176 458 l 1
 126 403 98 331 98 256 c 0
EndSplineSet
EndChar

StartChar: varolessthan
Encoding: 52 52 53
Width: 796
Flags: HMW
HStem: -84 41<357 432 357 442> 555 41<357 432>
VStem: 56 41 696 41<219 293>
LayerCount: 2
Fore
SplineSet
99 288 m 1
 586 488 l 1
 533 531 466 555 397 555 c 0
 317 555 241 524 185 468 c 0
 137 419 106 356 99 288 c 1
157 497 m 0
 220 560 307 596 397 596 c 0
 487 596 575 560 638 497 c 0
 701 434 737 346 737 256 c 0
 737 166 701 78 638 15 c 0
 575 -48 487 -84 397 -84 c 0
 307 -84 220 -48 157 15 c 0
 92 78 56 166 56 256 c 0
 56 346 92 434 157 497 c 0
618 54 m 1
 668 109 696 181 696 256 c 0
 696 331 668 403 618 458 c 1
 131 256 l 1
 618 54 l 1
185 44 m 0
 241 -12 317 -43 397 -43 c 0
 466 -43 533 -19 586 24 c 1
 99 224 l 1
 106 156 137 93 185 44 c 0
EndSplineSet
EndChar

StartChar: varogreaterthan
Encoding: 53 53 54
Width: 796
Flags: HMW
HStem: -84 41<363 437 363 442> 555 41<363 437>
VStem: 56 42<219 293 219 301> 695 41<224 224 288 288>
LayerCount: 2
Fore
SplineSet
695 288 m 1
 688 356 657 419 609 468 c 0
 553 524 476 555 397 555 c 0
 328 555 262 531 209 488 c 1
 695 288 l 1
157 497 m 0
 220 560 307 596 397 596 c 0
 487 596 575 560 638 497 c 0
 701 434 736 346 736 256 c 0
 736 166 701 78 638 15 c 0
 575 -48 487 -84 397 -84 c 0
 307 -84 220 -48 157 15 c 0
 92 78 56 166 56 256 c 0
 56 346 92 434 157 497 c 0
397 -43 m 0
 476 -43 553 -12 609 44 c 0
 657 93 688 156 695 224 c 1
 209 24 l 1
 262 -19 328 -43 397 -43 c 0
176 458 m 1
 126 403 98 331 98 256 c 0
 98 181 126 109 176 54 c 1
 664 256 l 1
 176 458 l 1
EndSplineSet
EndChar

StartChar: varovee
Encoding: 54 54 55
Width: 796
Flags: HMW
HStem: -84 41<366 366> 555 41<360 435>
VStem: 56 42<216 290 216 301> 696 41<216 290>
LayerCount: 2
Fore
SplineSet
397 -10 m 1
 599 477 l 1
 544 527 472 555 397 555 c 0
 322 555 251 527 196 477 c 1
 397 -10 l 1
157 497 m 0
 220 560 307 596 397 596 c 0
 487 596 575 560 638 497 c 0
 701 434 737 346 737 256 c 0
 737 166 701 78 638 15 c 0
 575 -48 487 -84 397 -84 c 0
 307 -84 220 -48 157 15 c 0
 92 78 56 166 56 256 c 0
 56 346 92 434 157 497 c 0
609 44 m 1
 664 100 696 176 696 256 c 0
 696 325 673 391 630 444 c 1
 429 -43 l 1
 497 -36 560 -4 609 44 c 1
98 256 m 0
 98 176 129 100 185 44 c 0
 234 -4 298 -36 366 -43 c 1
 165 444 l 1
 122 391 98 325 98 256 c 0
EndSplineSet
EndChar

StartChar: varowedge
Encoding: 55 55 56
Width: 796
Flags: HMW
HStem: -84 41<360 435 360 442> 555 41G
VStem: 56 42<222 296 222 301> 696 41<222 296>
LayerCount: 2
Fore
SplineSet
696 256 m 0
 696 336 664 412 609 467 c 0
 560 516 497 547 429 554 c 1
 630 68 l 1
 673 121 696 187 696 256 c 0
157 497 m 0
 220 560 307 596 397 596 c 0
 487 596 575 560 638 497 c 0
 701 434 737 346 737 256 c 0
 737 166 701 78 638 15 c 0
 575 -48 487 -84 397 -84 c 0
 307 -84 220 -48 157 15 c 0
 92 78 56 166 56 256 c 0
 56 346 92 434 157 497 c 0
196 35 m 1
 251 -15 322 -43 397 -43 c 0
 472 -43 544 -15 599 35 c 1
 397 522 l 1
 196 35 l 1
185 468 m 0
 129 412 98 336 98 256 c 0
 98 187 122 121 165 68 c 1
 366 554 l 1
 298 547 234 516 185 468 c 0
EndSplineSet
EndChar

StartChar: talloblong
Encoding: 56 56 57
Width: 512
Flags: HMW
HStem: -256 41<149 335 175 335 175 355> 727 41<175 335 175 175>
VStem: 134 41<-215 727 -215 748 -215 753> 335 41<-215 727 727 727>
LayerCount: 2
Fore
SplineSet
134 -236 m 2
 134 748 l 2
 134 759 144 768 155 768 c 2
 355 768 l 2
 366 768 376 759 376 748 c 2
 376 -236 l 2
 376 -247 366 -256 355 -256 c 2
 155 -256 l 2
 144 -256 134 -247 134 -236 c 2
335 727 m 1
 175 727 l 1
 175 -215 l 1
 335 -215 l 1
 335 727 l 1
EndSplineSet
EndChar

StartChar: interleave
Encoding: 57 57 58
Width: 710
Flags: HMW
HStem: -256 22<147 159 349 360 550 562> 748 20G<133 159 147 174>
VStem: 133 41<-236 748> 334 41<-236 748> 536 41<-236 748>
LayerCount: 2
Fore
SplineSet
133 748 m 2
 133 759 142 768 153 768 c 0
 165 768 174 759 174 748 c 2
 174 -236 l 2
 174 -247 165 -256 153 -256 c 0
 142 -256 133 -247 133 -236 c 2
 133 748 l 2
334 748 m 2
 334 759 343 768 354 768 c 0
 365 768 375 759 375 748 c 2
 375 -236 l 2
 375 -247 365 -256 354 -256 c 0
 343 -256 334 -247 334 -236 c 2
 334 748 l 2
536 748 m 2
 536 759 545 768 556 768 c 0
 567 768 577 759 577 748 c 2
 577 -236 l 2
 577 -247 567 -256 556 -256 c 0
 545 -256 536 -247 536 -236 c 2
 536 748 l 2
EndSplineSet
EndChar

StartChar: obar
Encoding: 58 58 59
Width: 796
Flags: HMW
HStem: -85 26<384 384> 571 26<384 384 410 410>
VStem: 56 26<214 298 214 301> 384 26<-59 571 -59 571> 712 26<214 298>
LayerCount: 2
Fore
SplineSet
712 256 m 0
 712 340 679 420 620 479 c 0
 565 535 489 568 410 571 c 1
 410 -59 l 1
 489 -56 565 -23 620 33 c 0
 679 92 712 172 712 256 c 0
157 498 m 0
 220 561 307 597 397 597 c 0
 487 597 575 561 638 498 c 0
 701 433 737 346 737 256 c 0
 737 166 701 79 638 14 c 0
 575 -49 487 -85 397 -85 c 0
 307 -85 220 -49 157 14 c 0
 92 79 56 166 56 256 c 0
 56 346 92 433 157 498 c 0
82 256 m 0
 82 172 116 92 174 33 c 0
 230 -23 305 -56 384 -59 c 1
 384 571 l 1
 305 568 230 535 174 479 c 0
 116 420 82 340 82 256 c 0
EndSplineSet
EndChar

StartChar: obslash
Encoding: 59 59 60
Width: 796
Flags: HMW
HStem: -85 26<355 437 355 442> 571 26<357 439>
VStem: 56 26<214 296 214 301> 712 26<216 298>
LayerCount: 2
Fore
SplineSet
712 256 m 0
 712 340 679 420 620 479 c 0
 562 538 480 571 397 571 c 0
 317 571 241 541 183 488 c 1
 629 42 l 1
 682 100 712 176 712 256 c 0
157 498 m 0
 220 561 307 597 397 597 c 0
 487 597 575 561 638 498 c 0
 701 433 737 346 737 256 c 0
 737 166 701 79 638 14 c 0
 575 -49 487 -85 397 -85 c 0
 307 -85 220 -49 157 14 c 0
 92 79 56 166 56 256 c 0
 56 346 92 433 157 498 c 0
174 33 m 0
 233 -26 313 -59 397 -59 c 0
 476 -59 553 -29 610 24 c 1
 166 470 l 1
 113 412 82 336 82 256 c 0
 82 172 116 92 174 33 c 0
EndSplineSet
EndChar

StartChar: olessthan
Encoding: 60 60 61
Width: 796
Flags: HMW
HStem: -85 26<355 436 355 442> 571 26<355 436>
VStem: 56 27<237 237> 712 26<216 296>
LayerCount: 2
Fore
SplineSet
83 275 m 1
 606 493 l 1
 549 544 474 571 397 571 c 0
 313 571 233 538 174 479 c 0
 120 425 88 352 83 275 c 1
157 498 m 0
 220 561 307 597 397 597 c 0
 487 597 575 561 638 498 c 0
 701 433 737 346 737 256 c 0
 737 166 701 79 638 14 c 0
 575 -49 487 -85 397 -85 c 0
 307 -85 220 -49 157 14 c 0
 92 79 56 166 56 256 c 0
 56 346 92 433 157 498 c 0
626 39 m 1
 681 97 712 175 712 256 c 0
 712 337 681 415 626 473 c 1
 103 256 l 1
 626 39 l 1
174 33 m 0
 233 -26 313 -59 397 -59 c 0
 474 -59 549 -32 606 19 c 1
 83 237 l 1
 88 160 120 87 174 33 c 0
EndSplineSet
EndChar

StartChar: ogreaterthan
Encoding: 61 61 62
Width: 796
Flags: HMW
HStem: -85 26<359 439 359 442> 571 26<359 439>
VStem: 56 26<216 296 216 301> 712 26<237 237 275 275>
LayerCount: 2
Fore
SplineSet
712 275 m 1
 707 352 675 425 621 479 c 0
 562 538 480 571 397 571 c 0
 320 571 245 544 188 493 c 1
 712 275 l 1
157 498 m 0
 220 561 307 597 397 597 c 0
 487 597 575 561 638 498 c 0
 701 433 737 346 737 256 c 0
 737 166 701 79 638 14 c 0
 575 -49 487 -85 397 -85 c 0
 307 -85 220 -49 157 14 c 0
 92 79 56 166 56 256 c 0
 56 346 92 433 157 498 c 0
397 -59 m 0
 480 -59 562 -26 620 32 c 0
 675 87 707 160 712 237 c 1
 188 19 l 1
 245 -32 320 -59 397 -59 c 0
169 473 m 1
 114 415 82 337 82 256 c 0
 82 175 114 97 169 39 c 1
 691 256 l 1
 169 473 l 1
EndSplineSet
EndChar

StartChar: ovee
Encoding: 62 62 63
Width: 796
Flags: HMW
HStem: -85 26<378 378> 571 26<357 438>
VStem: 56 26<214 294 214 301> 712 26<214 294>
LayerCount: 2
Fore
SplineSet
397 -39 m 1
 613 485 l 1
 555 540 478 571 397 571 c 0
 316 571 238 540 180 485 c 1
 397 -39 l 1
157 498 m 0
 220 561 307 597 397 597 c 0
 487 597 575 561 638 498 c 0
 701 433 737 346 737 256 c 0
 737 166 701 79 638 14 c 0
 575 -49 487 -85 397 -85 c 0
 307 -85 220 -49 157 14 c 0
 92 79 56 166 56 256 c 0
 56 346 92 433 157 498 c 0
620 33 m 0
 679 92 712 172 712 256 c 0
 712 333 684 408 633 465 c 1
 417 -59 l 1
 493 -54 566 -21 620 33 c 0
82 256 m 0
 82 172 116 92 174 34 c 0
 229 -21 301 -54 378 -59 c 1
 161 465 l 1
 111 408 82 333 82 256 c 0
EndSplineSet
EndChar

StartChar: owedge
Encoding: 63 63 64
Width: 796
Flags: HMW
HStem: -85 26<357 438 357 442> 571 26<378 378 417 417>
VStem: 56 26<218 298 218 301> 712 26<218 298>
LayerCount: 2
Fore
SplineSet
712 256 m 0
 712 340 679 420 620 479 c 0
 566 533 493 566 417 571 c 1
 633 47 l 1
 684 104 712 179 712 256 c 0
157 498 m 0
 220 561 307 597 397 597 c 0
 487 597 575 561 638 498 c 0
 701 433 737 346 737 256 c 0
 737 166 701 79 638 14 c 0
 575 -49 487 -85 397 -85 c 0
 307 -85 220 -49 157 14 c 0
 92 79 56 166 56 256 c 0
 56 346 92 433 157 498 c 0
180 27 m 1
 238 -28 316 -59 397 -59 c 0
 478 -59 555 -28 613 27 c 1
 397 551 l 1
 180 27 l 1
174 479 m 1
 116 420 82 340 82 256 c 0
 82 179 111 104 161 47 c 1
 378 571 l 1
 301 566 229 533 174 479 c 1
EndSplineSet
EndChar

StartChar: oblong
Encoding: 64 64 65
Width: 683
Flags: HMW
HStem: 0 41<77 578 103 578 103 598> 571 41<103 578 103 103>
VStem: 62 41<41 571 41 592 41 598> 578 41<41 571 571 571>
LayerCount: 2
Fore
SplineSet
62 20 m 2
 62 592 l 2
 62 603 72 612 83 612 c 2
 598 612 l 2
 609 612 618 603 618 592 c 2
 618 20 l 2
 618 9 609 0 598 0 c 2
 83 0 l 2
 72 0 62 9 62 20 c 2
578 571 m 1
 103 571 l 1
 103 41 l 1
 578 41 l 1
 578 571 l 1
EndSplineSet
EndChar

StartChar: inplus
Encoding: 65 65 66
Width: 683
Flags: HMW
HStem: -42 41<313 574 397 574> 236 41<127 334 127 334 375 574> 513 41<327 574 397 574>
VStem: 86 41<236 236> 334 41<101 236 276 411>
LayerCount: 2
Fore
SplineSet
574 554 m 2
 586 554 596 545 596 534 c 0
 596 523 586 513 574 513 c 2
 397 513 l 2
 256 513 138 410 127 276 c 1
 334 276 l 1
 334 411 l 2
 334 422 343 431 354 431 c 0
 365 431 375 422 375 411 c 2
 375 276 l 1
 574 276 l 2
 586 276 596 267 596 256 c 0
 596 245 586 236 574 236 c 2
 375 236 l 1
 375 101 l 2
 375 90 365 81 354 81 c 0
 343 81 334 90 334 101 c 2
 334 236 l 1
 127 236 l 1
 138 102 256 -1 397 -1 c 2
 574 -1 l 2
 586 -1 596 -11 596 -22 c 0
 596 -33 586 -42 574 -42 c 2
 397 -42 l 2
 228 -42 86 88 86 256 c 0
 86 424 228 554 397 554 c 2
 574 554 l 2
EndSplineSet
EndChar

StartChar: niplus
Encoding: 66 66 67
Width: 683
Flags: HMW
HStem: -42 41<100 284 105 284> 236 41<100 306 105 306 347 554> 513 41<100 284 105 284>
VStem: 306 41<101 236 276 411> 554 41<236 236 276 276>
LayerCount: 2
Fore
SplineSet
105 513 m 2
 94 513 85 523 85 534 c 0
 85 545 94 554 105 554 c 2
 284 554 l 2
 453 554 595 424 595 256 c 0
 595 88 453 -42 284 -42 c 2
 105 -42 l 2
 94 -42 85 -33 85 -22 c 0
 85 -11 94 -1 105 -1 c 2
 284 -1 l 2
 425 -1 543 102 554 236 c 1
 347 236 l 1
 347 101 l 2
 347 90 338 81 327 81 c 0
 315 81 306 90 306 101 c 2
 306 236 l 1
 105 236 l 2
 94 236 85 245 85 256 c 0
 85 267 94 276 105 276 c 2
 306 276 l 1
 306 411 l 2
 306 422 315 431 327 431 c 0
 338 431 347 422 347 411 c 2
 347 276 l 1
 554 276 l 1
 543 410 425 513 284 513 c 2
 105 513 l 2
EndSplineSet
EndChar

StartChar: nplus
Encoding: 67 67 68
Width: 683
Flags: HMW
HStem: -23 22<71 83 598 609> 257 41<154 319 160 319 360 521> 571 41<275 404>
VStem: 56 41<-2 393> 319 41<96 257 298 458> 583 41<-2 393>
LayerCount: 2
Fore
SplineSet
97 -2 m 2
 97 -13 89 -23 77 -23 c 0
 66 -23 56 -13 56 -2 c 2
 56 393 l 2
 56 533 200 612 340 612 c 0
 480 612 624 533 624 393 c 2
 624 -2 l 2
 624 -13 614 -23 603 -23 c 0
 592 -23 583 -13 583 -2 c 2
 583 393 l 2
 583 501 469 571 340 571 c 0
 211 571 97 501 97 393 c 2
 97 -2 l 2
360 96 m 2
 360 85 351 76 340 76 c 0
 329 76 319 85 319 96 c 2
 319 257 l 1
 160 257 l 2
 149 257 139 265 139 276 c 0
 139 288 149 298 160 298 c 2
 319 298 l 1
 319 458 l 2
 319 469 329 478 340 478 c 0
 351 478 360 469 360 458 c 2
 360 298 l 1
 521 298 l 2
 532 298 542 288 542 276 c 0
 542 265 532 257 521 257 c 2
 360 257 l 1
 360 96 l 2
EndSplineSet
EndChar

StartChar: subsetplus
Encoding: 68 68 69
Width: 796
Flags: HMW
HStem: -42 41<313 689 397 689> 236 41<295 435 301 435 476 609> 513 41<323 689 397 689>
VStem: 85 41<184 328 184 340> 435 41<101 236 276 411>
LayerCount: 2
Fore
SplineSet
689 554 m 2
 700 554 710 545 710 534 c 0
 710 523 700 513 689 513 c 2
 397 513 l 2
 249 513 126 399 126 256 c 0
 126 113 249 -1 397 -1 c 2
 689 -1 l 2
 700 -1 710 -11 710 -22 c 0
 710 -33 700 -42 689 -42 c 2
 397 -42 l 2
 228 -42 85 88 85 256 c 0
 85 424 228 554 397 554 c 2
 689 554 l 2
435 411 m 2
 435 422 445 431 456 431 c 0
 467 431 476 422 476 411 c 2
 476 276 l 1
 609 276 l 2
 621 276 631 267 631 256 c 0
 631 245 621 236 609 236 c 2
 476 236 l 1
 476 101 l 2
 476 90 467 81 456 81 c 0
 445 81 435 90 435 101 c 2
 435 236 l 1
 301 236 l 2
 290 236 281 245 281 256 c 0
 281 267 290 276 301 276 c 2
 435 276 l 1
 435 411 l 2
EndSplineSet
EndChar

StartChar: supsetplus
Encoding: 69 69 70
Width: 796
Flags: HMW
HStem: -42 41<100 397 105 397> 236 41<179 318 184 318 359 494> 513 41<100 397 105 397>
VStem: 318 41<101 236 276 411> 668 41<184 328>
LayerCount: 2
Fore
SplineSet
105 513 m 2
 94 513 85 523 85 534 c 0
 85 545 94 554 105 554 c 2
 397 554 l 2
 566 554 709 424 709 256 c 0
 709 88 566 -42 397 -42 c 2
 105 -42 l 2
 94 -42 85 -33 85 -22 c 0
 85 -11 94 -1 105 -1 c 2
 397 -1 l 2
 545 -1 668 113 668 256 c 0
 668 399 545 513 397 513 c 2
 105 513 l 2
318 411 m 2
 318 422 328 431 339 431 c 0
 350 431 359 422 359 411 c 2
 359 276 l 1
 494 276 l 2
 505 276 514 267 514 256 c 0
 514 245 505 236 494 236 c 2
 359 236 l 1
 359 101 l 2
 359 90 350 81 339 81 c 0
 328 81 318 90 318 101 c 2
 318 236 l 1
 184 236 l 2
 173 236 164 245 164 256 c 0
 164 267 173 276 184 276 c 2
 318 276 l 1
 318 411 l 2
EndSplineSet
EndChar

StartChar: subsetpluseq
Encoding: 70 70 71
Width: 796
Flags: HMW
HStem: -146 41<120 689 126 689> 55 41<313 689 397 689> 333 41<295 435 301 435 476 609> 610 41<323 689 397 689>
VStem: 85 41<282 425> 435 41<199 333 374 507>
LayerCount: 2
Fore
SplineSet
689 651 m 2
 700 651 710 642 710 631 c 0
 710 620 700 610 689 610 c 2
 397 610 l 2
 249 610 126 496 126 353 c 0
 126 210 249 96 397 96 c 2
 689 96 l 2
 700 96 710 87 710 76 c 0
 710 65 700 55 689 55 c 2
 397 55 l 2
 228 55 85 185 85 353 c 0
 85 521 228 651 397 651 c 2
 689 651 l 2
689 -105 m 2
 700 -105 710 -115 710 -126 c 0
 710 -137 700 -146 689 -146 c 2
 126 -146 l 2
 115 -146 105 -137 105 -126 c 0
 105 -115 115 -105 126 -105 c 2
 689 -105 l 2
435 507 m 2
 435 519 445 527 456 527 c 0
 467 527 476 519 476 507 c 2
 476 374 l 1
 609 374 l 2
 621 374 631 364 631 353 c 0
 631 342 621 333 609 333 c 2
 476 333 l 1
 476 199 l 2
 476 188 467 178 456 178 c 0
 445 178 435 188 435 199 c 2
 435 333 l 1
 301 333 l 2
 290 333 281 342 281 353 c 0
 281 364 290 374 301 374 c 2
 435 374 l 1
 435 507 l 2
EndSplineSet
EndChar

StartChar: supsetpluseq
Encoding: 71 71 72
Width: 796
Flags: HMW
HStem: -146 41<100 668 105 668> 55 41<100 397 105 397> 333 41<179 318 184 318 359 494> 610 41<100 397 105 397>
VStem: 318 41G<199 333 374 507> 668 41G<282 425>
LayerCount: 2
Fore
SplineSet
105 610 m 2
 94 610 85 620 85 631 c 0
 85 642 94 651 105 651 c 2
 397 651 l 2
 566 651 709 521 709 353 c 0
 709 185 566 55 397 55 c 2
 105 55 l 2
 94 55 85 65 85 76 c 0
 85 87 94 96 105 96 c 2
 397 96 l 2
 545 96 668 210 668 353 c 0
 668 496 545 610 397 610 c 2
 105 610 l 2
105 -146 m 2
 94 -146 85 -137 85 -126 c 0
 85 -115 94 -105 105 -105 c 2
 668 -105 l 2
 680 -105 689 -115 689 -126 c 0
 689 -137 680 -146 668 -146 c 2
 105 -146 l 2
318 507 m 2
 318 519 328 527 339 527 c 0
 350 527 359 519 359 507 c 2
 359 374 l 1
 494 374 l 2
 505 374 514 364 514 353 c 0
 514 342 505 333 494 333 c 2
 359 333 l 1
 359 199 l 2
 359 188 350 178 339 178 c 0
 328 178 318 188 318 199 c 2
 318 333 l 1
 184 333 l 2
 173 333 164 342 164 353 c 0
 164 364 173 374 184 374 c 2
 318 374 l 1
 318 507 l 2
EndSplineSet
EndChar

StartChar: Lbag
Encoding: 72 72 73
Width: 454
Flags: HW
HStem: -256 23<319 389 319 389> 745 23<158 201>
VStem: 56 86<-65 112 -65 119> 268 26<540 679>
LayerCount: 2
Fore
SplineSet
56 0 m 0
 56 239 268 423 268 654 c 0
 268 704 226 745 175 745 c 0
 140 745 110 727 94 699 c 1
 102 700 l 1
 125 700 147 685 147 654 c 0xf0
 147 623 124 609 101 609 c 0
 78 609 56 623 56 654 c 0
 56 719 110 768 175 768 c 0
 240 768 294 719 294 654 c 0
 294 426 142 224 142 0 c 0
 142 -130 253 -233 386 -233 c 0
 392 -233 396 -238 396 -243 c 2
 396 -246 l 2
 396 -252 392 -256 386 -256 c 0
 219 -256 56 -159 56 0 c 0
EndSplineSet
EndChar

StartChar: Rbag
Encoding: 73 73 74
Width: 454
Flags: HW
HStem: -256 23<64 133 64 151> 745 23<252 295>
VStem: 160 26<540 679 539 687> 305 91<639 670> 311 85<-65 112>
LayerCount: 2
Fore
SplineSet
358 699 m 1xf0
 343 727 313 745 278 745 c 0
 228 745 185 704 185 654 c 0
 185 423 396 239 396 0 c 0
 396 -159 235 -256 67 -256 c 0
 62 -256 56 -252 56 -246 c 0
 56 -238 62 -233 67 -233 c 0
 200 -233 311 -130 311 0 c 0xe8
 311 224 160 426 160 654 c 0
 160 719 215 768 278 768 c 0
 343 768 396 719 396 654 c 0
 396 623 373 609 350 609 c 0
 327 609 305 623 305 654 c 0
 305 685 327 700 350 700 c 1
 358 699 l 1xf0
EndSplineSet
EndChar

StartChar: llbracket
Encoding: 74 74 75
Width: 412
Flags: HMW
HStem: -256 41<127 246 160 246 287 377> 727 41<160 246 160 160 287 377 287 287>
VStem: 119 41<-215 727 -215 757 -215 760> 246 41<-215 727 -215 727>
LayerCount: 2
Fore
SplineSet
119 -245 m 2
 119 757 l 2
 119 763 124 768 130 768 c 2
 377 768 l 2
 384 768 389 763 389 757 c 2
 389 738 l 2
 389 732 384 727 377 727 c 2
 287 727 l 1
 287 -215 l 1
 377 -215 l 2
 384 -215 389 -220 389 -226 c 2
 389 -245 l 2
 389 -251 384 -256 377 -256 c 2
 130 -256 l 2
 124 -256 119 -251 119 -245 c 2
246 727 m 1
 160 727 l 1
 160 -215 l 1
 246 -215 l 1
 246 727 l 1
EndSplineSet
EndChar

StartChar: rrbracket
Encoding: 75 75 76
Width: 412
Flags: HMW
HStem: -256 41<33 123 36 123 164 251> 727 41<33 281 36 123 164 251 164 164>
VStem: 123 41<-215 727> 251 41<-215 727 727 727>
LayerCount: 2
Fore
SplineSet
164 -215 m 1
 251 -215 l 1
 251 727 l 1
 164 727 l 1
 164 -215 l 1
292 -245 m 2
 292 -251 287 -256 281 -256 c 2
 36 -256 l 2
 30 -256 25 -251 25 -245 c 2
 25 -226 l 2
 25 -220 30 -215 36 -215 c 2
 123 -215 l 1
 123 727 l 1
 36 727 l 2
 30 727 25 732 25 738 c 2
 25 757 l 2
 25 763 30 768 36 768 c 2
 281 768 l 2
 287 768 292 763 292 757 c 2
 292 -245 l 2
EndSplineSet
EndChar

StartChar: llparenthesis
Encoding: 76 76 77
Width: 398
Flags: HMW
HStem: -256 22<328 331> 748 20G<326 329>
VStem: 101 58<173 339 173 353> 298 41<-199 711 711 711>
LayerCount: 2
Fore
SplineSet
321 -254 m 0
 167 -134 101 61 101 256 c 0
 101 451 167 646 321 766 c 0
 323 767 325 768 327 768 c 0
 331 768 334 768 337 765 c 0
 339 763 339 761 339 758 c 2
 339 -246 l 2
 339 -249 339 -251 337 -253 c 0
 335 -255 332 -256 330 -256 c 0
 327 -256 324 -256 321 -254 c 0
298 711 m 1
 195 589 160 422 160 256 c 0
 160 90 195 -77 298 -199 c 1
 298 711 l 1
EndSplineSet
EndChar

StartChar: rrparenthesis
Encoding: 77 77 78
Width: 398
Flags: HMW
HStem: -256 22<65 68> 748 20G<65 68>
VStem: 56 41<-199 -199 -199 711> 237 57<173 339>
LayerCount: 2
Fore
SplineSet
97 -199 m 1
 201 -77 237 90 237 256 c 0
 237 422 201 589 97 711 c 1
 97 -199 l 1
76 -254 m 0
 73 -256 70 -256 67 -256 c 0
 64 -256 61 -255 59 -253 c 0
 57 -251 56 -249 56 -246 c 2
 56 758 l 2
 56 761 57 763 59 765 c 0
 61 767 64 768 67 768 c 0
 70 768 73 768 76 766 c 0
 230 646 294 451 294 256 c 0
 294 61 230 -134 76 -254 c 0
EndSplineSet
EndChar

StartChar: binampersand
Encoding: 78 78 79
Width: 796
Flags: HMW
HStem: -84 41<199 296 199 303> 555 41<351 424>
VStem: 57 41<46 129 46 140> 208 41<430 481 430 493> 493 41<429 483>
LayerCount: 2
Fore
SplineSet
698 264 m 0
 701 272 710 276 718 276 c 0
 720 276 723 276 725 275 c 0
 733 271 737 264 737 256 c 0
 737 253 737 251 736 248 c 0
 707 180 666 120 616 71 c 1
 730 -26 l 2
 735 -30 738 -36 738 -42 c 0
 738 -46 736 -51 733 -54 c 0
 729 -59 723 -62 717 -62 c 0
 712 -62 707 -60 703 -57 c 2
 586 43 l 1
 490 -38 368 -84 238 -84 c 0
 143 -84 57 -15 57 80 c 0
 57 201 170 266 284 299 c 1
 232 351 208 406 208 453 c 0
 208 534 277 596 397 596 c 0
 481 596 534 533 534 461 c 0
 534 392 486 316 369 278 c 1
 585 97 l 1
 633 143 671 199 698 264 c 0
98 80 m 0
 98 11 161 -43 238 -43 c 0
 356 -43 466 -2 553 70 c 1
 321 265 l 1
 201 237 98 178 98 80 c 0
397 555 m 0
 304 555 249 512 249 451 c 0
 249 410 274 359 330 310 c 1
 449 339 493 402 493 457 c 0
 493 510 451 555 397 555 c 0
EndSplineSet
EndChar

StartChar: bindnasrepma
Encoding: 79 79 80
Width: 796
Flags: HMW
HStem: -84 41<370 443 370 457> 555 41<498 595>
VStem: 260 41<29 82 29 84> 546 41<30 81> 696 41<382 466>
LayerCount: 2
Fore
SplineSet
96 248 m 0
 93 240 85 236 77 236 c 0
 75 236 72 236 70 237 c 0
 62 241 57 248 57 256 c 0
 57 259 57 261 58 264 c 0
 87 332 128 392 178 441 c 1
 65 538 l 2
 60 542 56 548 56 554 c 0
 56 558 58 562 61 566 c 0
 65 571 72 574 78 574 c 0
 82 574 86 572 90 569 c 2
 209 469 l 1
 304 550 427 596 557 596 c 0
 652 596 737 527 737 432 c 0
 737 311 624 245 511 213 c 1
 562 161 587 106 587 59 c 0
 587 -22 516 -84 397 -84 c 0
 312 -84 260 -22 260 50 c 0
 260 119 308 195 425 233 c 1
 210 415 l 1
 162 369 123 313 96 248 c 0
696 432 m 0
 696 501 634 555 557 555 c 0
 439 555 329 514 241 442 c 1
 473 247 l 1
 594 275 696 333 696 432 c 0
397 -43 m 0
 489 -43 546 0 546 60 c 0
 546 101 520 151 464 201 c 1
 345 172 301 109 301 55 c 0
 301 2 342 -43 397 -43 c 0
EndSplineSet
EndChar

StartChar: trianglelefteqslant
Encoding: 80 80 81
Width: 796
Flags: HMW
HStem: -146 22<688 693> 631 20G<688 710>
VStem: 669 41<109 598 598 598>
LayerCount: 2
Fore
SplineSet
689 651 m 0
 696 651 704 647 708 640 c 0
 709 637 710 634 710 631 c 2
 710 76 l 2
 710 73 709 70 708 67 c 0
 704 60 696 55 689 55 c 0
 685 55 683 55 680 57 c 2
 97 335 l 2
 93 337 89 340 87 344 c 0
 86 347 85 350 85 353 c 0
 85 356 86 359 87 361 c 0
 89 366 93 370 97 372 c 2
 680 649 l 2
 683 650 686 651 689 651 c 0
669 109 m 1
 669 598 l 1
 154 353 l 1
 669 109 l 1
697 -108 m 2
 704 -112 710 -119 710 -127 c 0
 710 -130 709 -132 708 -135 c 0
 704 -142 696 -146 689 -146 c 0
 686 -146 683 -145 680 -144 c 2
 97 133 l 2
 90 137 85 145 85 153 c 0
 85 156 86 158 87 161 c 0
 91 168 98 172 105 172 c 0
 108 172 112 171 115 170 c 2
 697 -108 l 2
EndSplineSet
EndChar

StartChar: trianglerighteqslant
Encoding: 81 81 82
Width: 796
Flags: HMW
HStem: -146 22<102 107> 631 20G<85 107>
VStem: 85 41<109 109 109 598>
LayerCount: 2
Fore
SplineSet
85 631 m 2
 85 642 94 651 105 651 c 0
 108 651 112 650 115 649 c 2
 697 372 l 2
 702 370 706 365 708 361 c 0
 709 358 710 356 710 353 c 0
 710 345 704 338 697 335 c 2
 115 57 l 2
 112 55 108 55 105 55 c 0
 98 55 91 60 87 67 c 0
 86 70 85 73 85 76 c 2
 85 631 l 2
126 109 m 1
 641 353 l 1
 126 598 l 1
 126 109 l 1
708 344 m 2
 709 351 l 2
 709 350 709 347 708 344 c 2
115 -144 m 2
 112 -145 108 -146 105 -146 c 0
 98 -146 91 -142 87 -135 c 0
 86 -132 85 -130 85 -127 c 0
 85 -119 90 -112 97 -108 c 2
 680 170 l 2
 683 171 686 172 689 172 c 0
 696 172 704 168 708 161 c 0
 709 158 710 156 710 153 c 0
 710 145 704 137 697 133 c 2
 115 -144 l 2
EndSplineSet
EndChar

StartChar: ntrianglelefteqslant
Encoding: 82 82 83
Width: 796
Flags: HMW
HStem: -310 22<169 175> 802 20G<620 625>
VStem: 669 41<109 599 599 599>
LayerCount: 2
Fore
SplineSet
559 592 m 1
 680 649 l 2
 683 651 686 651 689 651 c 0
 700 651 710 642 710 631 c 2
 710 76 l 2
 710 65 700 55 689 55 c 0
 685 55 683 56 680 57 c 2
 393 194 l 1
 339 63 l 1
 697 -106 l 2
 704 -110 710 -118 710 -126 c 0
 710 -129 709 -131 708 -134 c 0
 704 -141 696 -146 688 -146 c 0
 685 -146 683 -145 680 -144 c 2
 324 26 l 1
 189 -297 l 2
 186 -305 179 -310 171 -310 c 0
 168 -310 166 -309 163 -308 c 0
 155 -305 150 -298 150 -290 c 0
 150 -287 151 -285 152 -282 c 2
 287 43 l 1
 97 133 l 2
 90 137 85 145 85 153 c 0
 85 156 86 158 87 161 c 0
 91 168 98 173 106 173 c 0
 109 173 112 172 115 171 c 2
 302 81 l 1
 356 211 l 1
 97 335 l 2
 92 337 89 341 87 345 c 0
 86 347 85 350 85 353 c 0
 85 356 86 359 87 362 c 0
 89 366 93 370 97 372 c 2
 504 566 l 1
 605 809 l 2
 608 817 616 822 624 822 c 0
 627 822 629 821 632 820 c 0
 640 817 644 809 644 801 c 0
 644 799 644 796 643 794 c 2
 559 592 l 1
372 250 m 1
 480 509 l 1
 154 353 l 1
 372 250 l 1
669 109 m 1
 669 599 l 1
 536 536 l 1
 410 231 l 1
 669 109 l 1
EndSplineSet
EndChar

StartChar: ntrianglerighteqslant
Encoding: 83 83 84
Width: 796
Flags: HMW
HStem: -310 22<169 175> 802 20G<620 625>
VStem: 85 41<109 599 109 631 109 632>
LayerCount: 2
Fore
SplineSet
87 640 m 0
 91 647 98 651 105 651 c 0
 108 651 112 651 115 649 c 2
 469 481 l 1
 605 809 l 2
 608 817 616 822 624 822 c 0
 627 822 629 821 632 820 c 0
 640 817 644 809 644 801 c 0
 644 799 644 796 643 794 c 2
 506 464 l 1
 697 372 l 2
 704 369 710 361 710 353 c 0
 710 350 709 348 708 345 c 0
 706 340 701 337 697 335 c 2
 392 189 l 1
 311 -5 l 1
 680 171 l 2
 683 172 685 173 688 173 c 0
 696 173 704 168 708 161 c 0
 709 158 710 156 710 153 c 0
 710 145 704 137 697 133 c 2
 287 -61 l 1
 189 -297 l 2
 186 -305 179 -310 171 -310 c 0
 168 -310 166 -309 163 -308 c 0
 155 -305 150 -298 150 -290 c 0
 150 -287 151 -285 152 -282 c 2
 231 -88 l 1
 115 -144 l 2
 112 -145 109 -146 106 -146 c 0
 98 -146 91 -141 87 -134 c 0
 86 -131 85 -129 85 -126 c 0
 85 -118 90 -110 97 -106 c 2
 255 -32 l 1
 336 163 l 1
 115 57 l 2
 112 56 108 55 105 55 c 0
 97 55 90 61 87 68 c 0
 86 70 85 73 85 76 c 2
 85 631 l 2
 85 634 86 637 87 640 c 0
359 220 m 1
 453 443 l 1
 126 599 l 1
 126 109 l 1
 359 220 l 1
416 246 m 1
 641 353 l 1
 489 425 l 1
 416 246 l 1
EndSplineSet
EndChar

StartChar: llfloor
Encoding: 84 84 85
Width: 569
Flags: HMW
HStem: -256 41<138 325 164 325 366 546> 748 20G<123 149 138 164>
VStem: 123 41<-215 748 -215 748 -215 753> 325 41<-215 748 -215 753>
LayerCount: 2
Fore
SplineSet
123 748 m 2
 123 759 132 768 143 768 c 0
 154 768 164 759 164 748 c 2
 164 -215 l 1
 325 -215 l 1
 325 748 l 2
 325 759 334 768 345 768 c 0
 356 768 366 759 366 748 c 2
 366 -215 l 1
 546 -215 l 2
 558 -215 567 -225 567 -236 c 0
 567 -247 558 -256 546 -256 c 2
 143 -256 l 2
 132 -256 123 -247 123 -236 c 2
 123 748 l 2
EndSplineSet
EndChar

StartChar: rrfloor
Encoding: 85 85 86
Width: 569
Flags: HMW
HStem: -256 41<15 202 20 202 243 403> 748 20G<202 228 217 243>
VStem: 202 41<-215 748 -215 753> 403 41<-215 748>
LayerCount: 2
Fore
SplineSet
202 748 m 2
 202 759 211 768 222 768 c 0
 233 768 243 759 243 748 c 2
 243 -215 l 1
 403 -215 l 1
 403 748 l 2
 403 759 413 768 424 768 c 0
 435 768 444 759 444 748 c 2
 444 -236 l 2
 444 -247 435 -256 424 -256 c 2
 20 -256 l 2
 9 -256 0 -247 0 -236 c 0
 0 -225 9 -215 20 -215 c 2
 202 -215 l 1
 202 748 l 2
EndSplineSet
EndChar

StartChar: llceil
Encoding: 86 86 87
Width: 569
Flags: HMW
HStem: -256 22<138 149 339 351> 727 41<164 325 164 164 366 546 366 366>
VStem: 123 41<-236 727> 325 41<-236 727>
LayerCount: 2
Fore
SplineSet
164 -236 m 2
 164 -247 154 -256 143 -256 c 0
 132 -256 123 -247 123 -236 c 2
 123 748 l 2
 123 759 132 768 143 768 c 2
 546 768 l 2
 558 768 567 759 567 748 c 0
 567 737 558 727 546 727 c 2
 366 727 l 1
 366 -236 l 2
 366 -247 356 -256 345 -256 c 0
 334 -256 325 -247 325 -236 c 2
 325 727 l 1
 164 727 l 1
 164 -236 l 2
EndSplineSet
EndChar

StartChar: rrceil
Encoding: 87 87 88
Width: 569
Flags: HMW
HStem: -256 22<217 228 418 430> 727 41<15 424 20 202 243 243 243 403>
VStem: 202 41<-236 727> 403 41<-236 727 727 727>
LayerCount: 2
Fore
SplineSet
243 -236 m 2
 243 -247 233 -256 222 -256 c 0
 211 -256 202 -247 202 -236 c 2
 202 727 l 1
 20 727 l 2
 9 727 0 737 0 748 c 0
 0 759 9 768 20 768 c 2
 424 768 l 2
 435 768 444 759 444 748 c 2
 444 -236 l 2
 444 -247 435 -256 424 -256 c 0
 413 -256 403 -247 403 -236 c 2
 403 727 l 1
 243 727 l 1
 243 -236 l 2
EndSplineSet
EndChar

StartChar: arrownot
Encoding: 88 88 89
Width: 0
Flags: HMW
HStem: 65 22<395 400> 427 20G<622 627>
LayerCount: 2
Fore
SplineSet
607 438 m 2
 611 444 619 447 625 447 c 0
 629 447 633 446 636 443 c 0
 642 439 645 432 645 426 c 0
 645 422 644 419 642 416 c 2
 415 74 l 2
 411 68 403 65 397 65 c 0
 393 65 389 66 386 69 c 0
 380 73 377 80 377 86 c 0
 377 90 378 93 380 96 c 2
 607 438 l 2
EndSplineSet
EndChar

StartChar: Arrownot
Encoding: 89 89 90
Width: 0
Flags: HMW
HStem: -36 22<425 430> 527 20G<592 597>
LayerCount: 2
Fore
SplineSet
577 534 m 2
 579 543 588 548 596 548 c 0
 598 548 600 548 602 547 c 0
 611 545 616 536 616 528 c 0
 616 526 616 523 615 521 c 2
 445 -22 l 2
 443 -31 434 -36 426 -36 c 0
 424 -36 422 -36 420 -35 c 0
 411 -33 406 -24 406 -16 c 0
 406 -14 406 -11 407 -9 c 2
 577 534 l 2
EndSplineSet
EndChar

StartChar: Mapstochar
Encoding: 90 90 91
Width: 0
Flags: HMW
HStem: -36 22<71 83> 527 20G<57 83 71 98>
VStem: 57 41<-15 135 176 336 377 527>
LayerCount: 2
Fore
SplineSet
98 -15 m 2
 98 -26 89 -36 77 -36 c 0
 66 -36 57 -26 57 -15 c 2
 57 527 l 2
 57 538 66 548 77 548 c 0
 89 548 98 538 98 527 c 2
 98 377 l 1
 105 377 l 2
 116 377 126 367 126 356 c 0
 126 345 116 336 105 336 c 2
 98 336 l 1
 98 176 l 1
 105 176 l 2
 116 176 126 167 126 156 c 0
 126 145 116 135 105 135 c 2
 98 135 l 1
 98 -15 l 2
EndSplineSet
EndChar

StartChar: mapsfromchar
Encoding: 91 91 92
Width: 0
Flags: HMW
HStem: 65 22<-83 -71> 427 20G<-97 -71 -83 -56>
VStem: -97 41<85 236 236 236 276 427>
LayerCount: 2
Fore
SplineSet
-56 85 m 2
 -56 74 -66 65 -77 65 c 0
 -89 65 -97 74 -97 85 c 2
 -97 236 l 1
 -105 236 l 2
 -116 236 -126 245 -126 256 c 0
 -126 267 -116 276 -105 276 c 2
 -97 276 l 1
 -97 427 l 2
 -97 438 -89 447 -77 447 c 0
 -66 447 -56 438 -56 427 c 2
 -56 85 l 2
EndSplineSet
EndChar

StartChar: Mapsfromchar
Encoding: 92 92 93
Width: 0
Flags: HMW
HStem: -36 22<-83 -71> 527 20G<-97 -71 -83 -56>
VStem: -97 41<-15 135 135 135 176 336 336 336 377 527>
LayerCount: 2
Fore
SplineSet
-56 -15 m 2
 -56 -26 -66 -36 -77 -36 c 0
 -89 -36 -97 -26 -97 -15 c 2
 -97 135 l 1
 -105 135 l 2
 -116 135 -126 145 -126 156 c 0
 -126 167 -116 176 -105 176 c 2
 -97 176 l 1
 -97 336 l 1
 -105 336 l 2
 -116 336 -126 345 -126 356 c 0
 -126 367 -116 377 -105 377 c 2
 -97 377 l 1
 -97 527 l 2
 -97 538 -89 548 -77 548 c 0
 -66 548 -56 538 -56 527 c 2
 -56 -15 l 2
EndSplineSet
EndChar

StartChar: leftrightarrowtriangle
Encoding: 93 93 94
Width: 1024
Flags: HMW
HStem: 85 22<336 344 678 686> 236 41<358 664 358 664> 407 20G<336 358>
VStem: 317 41<141 236 276 371 371 371> 664 41<141 141 141 236 236 236 276 371>
LayerCount: 2
Fore
SplineSet
317 141 m 1
 317 371 l 1
 119 256 l 1
 317 141 l 1
67 273 m 2
 328 424 l 2
 331 426 334 427 338 427 c 0
 349 427 358 418 358 407 c 2
 358 276 l 1
 664 276 l 1
 664 407 l 2
 664 418 673 427 684 427 c 0
 688 427 691 426 694 424 c 2
 955 273 l 2
 957 272 961 269 963 266 c 0
 965 263 965 259 965 256 c 0
 965 249 961 242 955 239 c 2
 694 88 l 2
 691 86 688 85 684 85 c 0
 673 85 664 94 664 105 c 2
 664 236 l 1
 358 236 l 1
 358 105 l 2
 358 94 349 85 338 85 c 0
 334 85 331 86 328 88 c 2
 67 239 l 2
 61 242 57 249 57 256 c 0
 57 259 57 263 59 266 c 0
 61 269 65 272 67 273 c 2
705 141 m 1
 903 256 l 1
 705 371 l 1
 705 141 l 1
EndSplineSet
EndChar

StartChar: leftarrowtriangle
Encoding: 94 94 95
Width: 1024
Flags: HMW
HStem: 85 22<336 342> 236 41<358 944 358 944> 407 20G<336 358>
VStem: 317 41<141 236 276 371 371 371>
LayerCount: 2
Fore
SplineSet
944 276 m 2
 956 276 966 267 966 256 c 0
 966 245 956 236 944 236 c 2
 358 236 l 1
 358 105 l 2
 358 102 357 98 355 95 c 0
 351 89 345 85 338 85 c 0
 334 85 331 86 328 88 c 2
 67 239 l 2
 65 240 61 243 59 246 c 0
 57 249 56 253 56 257 c 0
 56 260 57 263 59 266 c 0
 61 269 65 272 67 273 c 2
 328 424 l 2
 331 426 334 427 338 427 c 0
 345 427 352 423 355 417 c 0
 357 414 358 410 358 407 c 2
 358 276 l 1
 944 276 l 2
317 141 m 1
 317 371 l 1
 119 256 l 1
 317 141 l 1
EndSplineSet
EndChar

StartChar: rightarrowtriangle
Encoding: 95 95 96
Width: 1024
Flags: HMW
HStem: 85 22<680 686> 236 41<72 664 78 664> 407 20G<664 686>
VStem: 664 41<141 141 141 236 236 236 276 371>
LayerCount: 2
Fore
SplineSet
78 236 m 2
 66 236 56 245 56 256 c 0
 56 267 66 276 78 276 c 2
 664 276 l 1
 664 407 l 2
 664 418 673 427 684 427 c 0
 688 427 691 426 694 424 c 2
 955 273 l 2
 961 270 965 263 965 256 c 0
 965 253 965 249 963 246 c 0
 961 243 957 240 955 239 c 2
 694 88 l 2
 691 86 688 85 684 85 c 0
 677 85 671 89 667 95 c 0
 665 98 664 102 664 105 c 2
 664 236 l 1
 78 236 l 2
705 141 m 1
 903 256 l 1
 705 371 l 1
 705 141 l 1
EndSplineSet
EndChar

StartChar: bigtriangledown
Encoding: 96 96 97
Width: 852
VWidth: 1843
Flags: HMW
HStem: -205 22<419 428> 751 69<139 713 139 139>
LayerCount: 2
Fore
SplineSet
58 774 m 2
 57 777 56 781 56 785 c 0
 56 798 66 812 80 817 c 0
 83 818 87 819 91 819 c 2
 761 819 l 2
 779 819 795 803 795 785 c 0
 795 781 794 777 793 774 c 2
 458 -182 l 2
 455 -191 447 -200 437 -203 c 0
 433 -204 430 -205 426 -205 c 0
 412 -205 398 -195 393 -182 c 2
 58 774 l 2
713 751 m 1
 139 751 l 1
 426 -68 l 1
 713 751 l 1
EndSplineSet
EndChar

StartChar: bigtriangleup
Encoding: 97 97 98
Width: 852
VWidth: 1843
Flags: HMW
HStem: -205 69<89 713 139 713 139 761> 799 20G<424 428>
LayerCount: 2
Fore
SplineSet
91 -205 m 2
 87 -205 83 -204 80 -203 c 0
 66 -198 56 -184 56 -171 c 0
 56 -167 57 -163 58 -160 c 2
 393 797 l 2
 396 806 405 814 415 817 c 0
 418 818 422 819 426 819 c 0
 430 819 433 818 437 817 c 0
 447 814 455 806 458 797 c 2
 793 -160 l 2
 794 -163 795 -167 795 -171 c 0
 795 -184 785 -198 772 -203 c 0
 768 -204 764 -205 761 -205 c 2
 91 -205 l 2
713 -136 m 1
 426 682 l 1
 139 -136 l 1
 713 -136 l 1
EndSplineSet
EndChar

StartChar: bigcurlyvee
Encoding: 98 98 99
Width: 852
VWidth: 1843
Flags: HMW
HStem: -205 22<416 435> 799 20G<85 94 757 766>
VStem: 391 69<-180 17>
LayerCount: 2
Fore
SplineSet
74 756 m 0
 63 762 57 773 57 784 c 0
 57 790 58 797 61 802 c 0
 67 813 79 819 91 819 c 0
 96 819 103 818 108 815 c 0
 297 705 385 518 426 310 c 1
 466 518 554 705 743 815 c 0
 748 818 755 819 760 819 c 0
 772 819 784 813 790 802 c 0
 793 797 795 790 795 784 c 0
 795 773 788 762 777 756 c 0
 485 587 460 205 460 -171 c 0
 460 -189 444 -205 426 -205 c 0
 407 -205 391 -189 391 -171 c 0
 391 205 366 587 74 756 c 0
EndSplineSet
EndChar

StartChar: bigcurlywedge
Encoding: 99 99 100
Width: 852
VWidth: 1843
Flags: HMW
HStem: -205 22<85 94 757 766> 799 20G<416 435>
VStem: 391 69<598 795>
LayerCount: 2
Fore
SplineSet
108 -201 m 0
 103 -204 96 -205 91 -205 c 0
 79 -205 67 -198 61 -187 c 0
 58 -182 57 -176 57 -170 c 0
 57 -159 63 -147 74 -141 c 0
 366 28 391 409 391 785 c 0
 391 803 407 819 426 819 c 0
 444 819 460 803 460 785 c 0
 460 409 485 28 777 -141 c 0
 788 -147 795 -159 795 -170 c 0
 795 -176 793 -182 790 -187 c 0
 784 -198 772 -205 760 -205 c 0
 755 -205 748 -204 743 -201 c 0
 554 -91 466 96 426 304 c 1
 385 96 297 -91 108 -201 c 0
EndSplineSet
EndChar

StartChar: bigsqcap
Encoding: 100 100 101
Width: 852
VWidth: 1843
Flags: HMW
HStem: -205 22<81 100 751 770> 751 69<125 726 125 125>
VStem: 56 69<-171 751> 726 69<-171 751 751 751>
LayerCount: 2
Fore
SplineSet
125 -171 m 2
 125 -189 109 -205 91 -205 c 0
 72 -205 56 -189 56 -171 c 2
 56 785 l 2
 56 803 72 819 91 819 c 2
 761 819 l 2
 779 819 795 803 795 785 c 2
 795 -171 l 2
 795 -189 779 -205 761 -205 c 0
 742 -205 726 -189 726 -171 c 2
 726 751 l 1
 125 751 l 1
 125 -171 l 2
EndSplineSet
EndChar

StartChar: bigbox
Encoding: 101 101 102
Width: 852
VWidth: 1843
Flags: HMW
HStem: -205 69<81 726 125 726 125 761> 751 69<125 726 125 125>
VStem: 56 69<-136 751 -136 785 -136 795> 726 69<-136 751 751 751>
LayerCount: 2
Fore
SplineSet
56 -171 m 2
 56 785 l 2
 56 803 72 819 91 819 c 2
 761 819 l 2
 779 819 795 803 795 785 c 2
 795 -171 l 2
 795 -189 779 -205 761 -205 c 2
 91 -205 l 2
 72 -205 56 -189 56 -171 c 2
726 751 m 1
 125 751 l 1
 125 -136 l 1
 726 -136 l 1
 726 751 l 1
EndSplineSet
EndChar

StartChar: bigparallel
Encoding: 102 102 103
Width: 454
VWidth: 1843
Flags: HMW
HStem: -205 22<81 100 353 372> 799 20G<81 100 353 372>
VStem: 56 69<-171 785> 328 69<-171 785>
LayerCount: 2
Fore
SplineSet
56 785 m 2
 56 803 72 819 91 819 c 0
 109 819 125 803 125 785 c 2
 125 -171 l 2
 125 -189 109 -205 91 -205 c 0
 72 -205 56 -189 56 -171 c 2
 56 785 l 2
396 -171 m 2
 396 -189 380 -205 362 -205 c 0
 343 -205 328 -189 328 -171 c 2
 328 785 l 2
 328 803 343 819 362 819 c 0
 380 819 396 803 396 785 c 2
 396 -171 l 2
EndSplineSet
EndChar

StartChar: biginterleave
Encoding: 103 103 104
Width: 625
VWidth: 1843
Flags: HMW
HStem: -205 22<81 100 336 355 591 610> 799 20G<81 100 336 355 591 610>
VStem: 57 68<-171 785> 312 68<-171 785> 567 68<-171 785>
LayerCount: 2
Fore
SplineSet
57 785 m 2
 57 803 72 819 91 819 c 0
 109 819 125 803 125 785 c 2
 125 -171 l 2
 125 -189 109 -205 91 -205 c 0
 72 -205 57 -189 57 -171 c 2
 57 785 l 2
567 785 m 2
 567 803 582 819 601 819 c 0
 619 819 635 803 635 785 c 2
 635 -171 l 2
 635 -189 619 -205 601 -205 c 0
 582 -205 567 -189 567 -171 c 2
 567 785 l 2
312 785 m 2
 312 803 327 819 346 819 c 0
 364 819 380 803 380 785 c 2
 380 -171 l 2
 380 -189 364 -205 346 -205 c 0
 327 -205 312 -189 312 -171 c 2
 312 785 l 2
EndSplineSet
EndChar

StartChar: hugetriangledown
Encoding: 104 104 105
Width: 1137
VWidth: 1843
Flags: HMW
HStem: -614 22<565 569> 736 83<156 980 156 156>
LayerCount: 2
Fore
SplineSet
554 -612 m 0
 542 -608 532 -598 529 -587 c 2
 59 764 l 2
 57 769 56 773 56 778 c 0
 56 801 74 819 98 819 c 2
 1037 819 l 2
 1042 819 1047 818 1052 817 c 0
 1067 811 1079 795 1079 778 c 0
 1079 773 1078 769 1076 764 c 2
 607 -587 l 2
 603 -598 594 -608 582 -612 c 0
 577 -614 571 -614 567 -614 c 0
 562 -614 558 -614 554 -612 c 0
980 736 m 1
 156 736 l 1
 568 -447 l 1
 980 736 l 1
EndSplineSet
EndChar

StartChar: hugetriangleup
Encoding: 105 105 106
Width: 1137
VWidth: 1843
Flags: HMW
HStem: -614 83<87 980 156 980 156 1037> 799 20G<565 576>
LayerCount: 2
Fore
SplineSet
98 -614 m 2
 74 -614 56 -596 56 -573 c 0
 56 -568 57 -564 59 -560 c 2
 529 792 l 2
 533 804 543 813 554 817 c 0
 558 818 563 819 567 819 c 0
 584 819 601 809 607 792 c 2
 1076 -560 l 2
 1078 -564 1079 -568 1079 -573 c 0
 1079 -589 1068 -606 1052 -612 c 0
 1047 -613 1042 -614 1037 -614 c 2
 98 -614 l 2
980 -531 m 1
 568 652 l 1
 156 -531 l 1
 980 -531 l 1
EndSplineSet
EndChar

StartChar: hugecurlyvee
Encoding: 106 106 107
Width: 1137
VWidth: 1843
Flags: HMW
HStem: -614 22<557 580> 799 20G<91 102 1034 1044>
VStem: 526 83<-585 -309>
LayerCount: 2
Fore
SplineSet
78 742 m 0
 65 749 57 764 57 778 c 0
 57 785 58 793 62 799 c 0
 69 812 84 819 98 819 c 0
 105 819 113 818 119 814 c 0
 393 655 514 380 568 75 c 1
 621 380 743 655 1017 814 c 0
 1023 818 1030 819 1037 819 c 0
 1051 819 1066 812 1073 799 c 0
 1077 793 1078 785 1078 778 c 0
 1078 764 1072 749 1059 742 c 0
 642 501 609 -44 609 -573 c 0
 609 -596 591 -614 568 -614 c 0
 544 -614 526 -596 526 -573 c 0
 526 -44 494 501 78 742 c 0
EndSplineSet
EndChar

StartChar: hugecurlywedge
Encoding: 107 107 108
Width: 1137
VWidth: 1843
Flags: HMW
HStem: -614 22<91 102 1034 1044> 799 20G<557 580>
VStem: 526 83<514 790>
LayerCount: 2
Fore
SplineSet
119 -609 m 0
 113 -613 105 -614 98 -614 c 0
 84 -614 69 -607 62 -594 c 0
 58 -588 57 -580 57 -573 c 0
 57 -559 65 -545 78 -538 c 0
 494 -297 526 249 526 778 c 0
 526 801 544 819 568 819 c 0
 591 819 609 801 609 778 c 0
 609 249 642 -297 1059 -538 c 0
 1072 -545 1078 -559 1078 -573 c 0
 1078 -580 1077 -588 1073 -594 c 0
 1066 -607 1051 -614 1037 -614 c 0
 1030 -614 1023 -613 1017 -609 c 0
 743 -450 621 -175 568 130 c 1
 514 -175 393 -450 119 -609 c 0
EndSplineSet
EndChar

StartChar: hugesqcap
Encoding: 108 108 109
Width: 1137
VWidth: 1843
Flags: HMW
HStem: -612 22<86 109 1026 1049> 736 83<139 139 139 996>
VStem: 56 83<-570 736> 996 83<-570 736 736 736>
LayerCount: 2
Fore
SplineSet
139 736 m 1
 139 -570 l 2
 139 -594 121 -612 97 -612 c 0
 73 -612 56 -594 56 -570 c 2
 56 778 l 2
 56 801 74 819 98 819 c 2
 1037 819 l 2
 1061 819 1079 801 1079 778 c 2
 1079 -570 l 2
 1079 -594 1061 -612 1037 -612 c 0
 1013 -612 996 -594 996 -570 c 2
 996 736 l 1
 139 736 l 1
EndSplineSet
EndChar

StartChar: hugebox
Encoding: 109 109 110
Width: 1137
VWidth: 1843
Flags: HMW
HStem: -614 83<87 997 139 997 139 1037> 736 83<139 139 139 997>
VStem: 56 83<-531 736 -531 778 -531 789> 997 83<-531 736 736 736>
LayerCount: 2
Fore
SplineSet
98 -614 m 2
 74 -614 56 -597 56 -574 c 2
 56 778 l 2
 56 800 72 819 95 819 c 2
 1038 819 l 2
 1062 819 1080 801 1080 778 c 2
 1080 -570 l 2
 1080 -593 1062 -614 1037 -614 c 2
 98 -614 l 2
139 736 m 1
 139 -531 l 1
 997 -531 l 1
 997 736 l 1
 139 736 l 1
EndSplineSet
EndChar

StartChar: hugeparallel
Encoding: 110 110 111
Width: 569
VWidth: 1843
Flags: HMW
HStem: -614 22<87 110 458 480> 799 20G<87 110 458 480>
VStem: 56 83<-573 778> 428 83<-573 778>
LayerCount: 2
Fore
SplineSet
56 778 m 2
 56 801 74 819 98 819 c 0
 121 819 139 801 139 778 c 2
 139 -573 l 2
 139 -596 121 -614 98 -614 c 0
 74 -614 56 -596 56 -573 c 2
 56 778 l 2
511 -573 m 2
 511 -596 492 -614 469 -614 c 0
 446 -614 428 -596 428 -573 c 2
 428 778 l 2
 428 801 446 819 469 819 c 0
 492 819 511 801 511 778 c 2
 511 -573 l 2
EndSplineSet
EndChar

StartChar: hugeinterleave
Encoding: 111 111 112
Width: 852
VWidth: 1843
Flags: HMW
HStem: -614 22<87 110 456 478 824 847> 799 20G<87 110 456 478 824 847>
VStem: 57 82<-573 778> 426 82<-573 778> 795 82<-573 778>
LayerCount: 2
Fore
SplineSet
57 778 m 2
 57 801 75 819 98 819 c 0
 121 819 139 801 139 778 c 2
 139 -573 l 2
 139 -596 121 -614 98 -614 c 0
 75 -614 57 -596 57 -573 c 2
 57 778 l 2
795 778 m 2
 795 801 813 819 836 819 c 0
 859 819 877 801 877 778 c 2
 877 -573 l 2
 877 -596 859 -614 836 -614 c 0
 813 -614 795 -596 795 -573 c 2
 795 778 l 2
426 778 m 2
 426 801 444 819 467 819 c 0
 490 819 508 801 508 778 c 2
 508 -573 l 2
 508 -596 490 -614 467 -614 c 0
 444 -614 426 -596 426 -573 c 2
 426 778 l 2
EndSplineSet
EndChar

StartChar: hugenplus
Encoding: 112 112 113
Width: 852
VWidth: 1843
Flags: HMW
HStem: -205 22<81 100 751 770> 245 68G<218 391 227 391 460 624> 751 69G<344 508>
VStem: 56 69<-171 467> 391 69<80 245 312 477> 726 69<-171 467>
LayerCount: 2
Fore
SplineSet
125 -171 m 2
 125 -189 109 -205 91 -205 c 0
 72 -205 56 -189 56 -171 c 2
 56 467 l 2
 56 666 226 819 426 819 c 0
 625 819 795 666 795 467 c 2
 795 -171 l 2
 795 -189 779 -205 761 -205 c 0
 742 -205 726 -189 726 -171 c 2
 726 467 l 2
 726 625 591 751 426 751 c 0
 261 751 125 625 125 467 c 2
 125 -171 l 2
227 245 m 2
 209 245 194 261 194 279 c 0
 194 297 209 312 227 312 c 2
 391 312 l 1
 391 477 l 2
 391 495 407 511 426 511 c 0
 444 511 460 495 460 477 c 2
 460 312 l 1
 624 312 l 2
 643 312 658 297 658 279 c 0
 658 261 643 245 624 245 c 2
 460 245 l 1
 460 80 l 2
 460 62 444 46 426 46 c 0
 407 46 391 62 391 80 c 2
 391 245 l 1
 227 245 l 2
EndSplineSet
EndChar

StartChar: largellbracket
Encoding: 113 113 114
Width: 540
VWidth: 1843
Flags: HMW
HStem: -367 41<215 341 248 341 382 505> 819 41<248 341 248 248 382 505 382 382>
VStem: 207 41<-326 819 -326 849 -326 852> 341 41<-326 819 -326 819>
LayerCount: 2
Fore
SplineSet
207 -355 m 2
 207 849 l 2
 207 855 211 860 218 860 c 2
 505 860 l 2
 511 860 516 855 516 849 c 2
 516 830 l 2
 516 824 511 819 505 819 c 2
 382 819 l 1
 382 -326 l 1
 505 -326 l 2
 511 -326 516 -331 516 -337 c 2
 516 -355 l 2
 516 -361 511 -367 505 -367 c 2
 218 -367 l 2
 211 -367 207 -361 207 -355 c 2
341 819 m 1
 248 819 l 1
 248 -326 l 1
 341 -326 l 1
 341 819 l 1
EndSplineSet
EndChar

StartChar: Largellbracket
Encoding: 114 114 115
Width: 596
VWidth: 1843
Flags: HMW
HStem: -981 48<240 380 280 380 428 565> 812 48<280 380 280 280 428 565 428 428>
VStem: 231 48<-933 812 -933 849 -933 852> 380 48<-933 812 -933 812>
LayerCount: 2
Fore
SplineSet
231 -970 m 2
 231 849 l 2
 231 855 237 860 243 860 c 2
 565 860 l 2
 571 860 577 855 577 849 c 2
 577 823 l 2
 577 817 571 812 565 812 c 2
 428 812 l 1
 428 -933 l 1
 565 -933 l 2
 571 -933 577 -938 577 -944 c 2
 577 -970 l 2
 577 -976 571 -981 565 -981 c 2
 243 -981 l 2
 237 -981 231 -976 231 -970 c 2
380 812 m 1
 280 812 l 1
 280 -933 l 1
 380 -933 l 1
 380 812 l 1
EndSplineSet
EndChar

StartChar: LARGEllbracket
Encoding: 115 115 116
Width: 654
VWidth: 1843
Flags: HMW
HStem: -1595 54<265 420 311 420 474 626> 806 54<311 420 311 311 474 626 474 474>
VStem: 257 54<-1541 806 -1541 849 -1541 852> 420 54<-1541 806 -1541 806>
LayerCount: 2
Fore
SplineSet
257 -1584 m 2
 257 849 l 2
 257 855 261 860 268 860 c 2
 626 860 l 2
 632 860 637 855 637 849 c 2
 637 817 l 2
 637 811 632 806 626 806 c 2
 474 806 l 1
 474 -1541 l 1
 626 -1541 l 2
 632 -1541 637 -1546 637 -1552 c 2
 637 -1584 l 2
 637 -1590 632 -1595 626 -1595 c 2
 268 -1595 l 2
 261 -1595 257 -1590 257 -1584 c 2
420 806 m 1
 311 806 l 1
 311 -1541 l 1
 420 -1541 l 1
 420 806 l 1
EndSplineSet
EndChar

StartChar: hugellbracket
Encoding: 116 116 117
Width: 710
VWidth: 1843
Flags: HMW
HStem: -2210 61<290 459 343 459 520 686> 799 61<343 459 343 343 520 686 520 520>
VStem: 282 61<-2148 799 -2148 849 -2148 852> 459 61<-2148 799 -2148 799>
LayerCount: 2
Fore
SplineSet
282 -2199 m 2
 282 849 l 2
 282 855 287 860 293 860 c 2
 686 860 l 2
 692 860 697 855 697 849 c 2
 697 810 l 2
 697 804 692 799 686 799 c 2
 520 799 l 1
 520 -2148 l 1
 686 -2148 l 2
 692 -2148 697 -2154 697 -2160 c 2
 697 -2199 l 2
 697 -2205 692 -2210 686 -2210 c 2
 293 -2210 l 2
 287 -2210 282 -2205 282 -2199 c 2
459 799 m 1
 343 799 l 1
 343 -2148 l 1
 459 -2148 l 1
 459 799 l 1
EndSplineSet
EndChar

StartChar: Hugellbrackettop
Encoding: 117 117 118
Width: 796
VWidth: 1843
Flags: HMW
HStem: -994 22<343 346 346 392 546 549 549 595> 790 69<403 538 403 403 606 774 606 606>
VStem: 335 69<-983 790> 538 69<-983 790>
LayerCount: 2
Fore
SplineSet
335 -983 m 2
 335 847 l 2
 335 853 340 858 346 858 c 2
 774 858 l 2
 781 858 786 853 786 847 c 2
 786 801 l 2
 786 795 781 790 774 790 c 2
 606 790 l 1
 606 -983 l 2
 606 -989 601 -994 595 -994 c 2
 549 -994 l 2
 543 -994 538 -989 538 -983 c 2
 538 790 l 1
 403 790 l 1
 403 -983 l 2
 403 -989 398 -994 392 -994 c 2
 346 -994 l 2
 340 -994 335 -989 335 -983 c 2
EndSplineSet
EndChar

StartChar: Hugellbracketbot
Encoding: 118 118 119
Width: 796
VWidth: 1843
Flags: HMW
HStem: -981 69<343 538 403 538 606 774> 851 20G<346 392 392 395 549 595 595 598>
VStem: 335 69<-912 860 -912 860 -912 863> 538 69<-912 860 -912 863>
LayerCount: 2
Fore
SplineSet
335 -970 m 2
 335 860 l 2
 335 866 340 871 346 871 c 2
 392 871 l 2
 398 871 403 866 403 860 c 2
 403 -912 l 1
 538 -912 l 1
 538 860 l 2
 538 866 543 871 549 871 c 2
 595 871 l 2
 601 871 606 866 606 860 c 2
 606 -912 l 1
 774 -912 l 2
 781 -912 786 -918 786 -924 c 2
 786 -970 l 2
 786 -976 781 -981 774 -981 c 2
 346 -981 l 2
 340 -981 335 -976 335 -970 c 2
EndSplineSet
EndChar

StartChar: Hugellbracketex
Encoding: 119 119 120
Width: 796
VWidth: 1843
Flags: HMW
HStem: 203 22<343 346 346 392 546 549 549 595> 812 20G<346 392 392 395 549 595 595 598>
VStem: 335 69<214 821> 538 69<214 821>
LayerCount: 2
Fore
SplineSet
335 214 m 2
 335 821 l 2
 335 827 340 833 346 833 c 2
 392 833 l 2
 398 833 403 827 403 821 c 2
 403 214 l 2
 403 208 398 203 392 203 c 2
 346 203 l 2
 340 203 335 208 335 214 c 2
538 214 m 2
 538 821 l 2
 538 827 543 833 549 833 c 2
 595 833 l 2
 601 833 606 827 606 821 c 2
 606 214 l 2
 606 208 601 203 595 203 c 2
 549 203 l 2
 543 203 538 208 538 214 c 2
EndSplineSet
EndChar

StartChar: Hugenplus
Encoding: 120 120 121
Width: 1137
VWidth: 1843
Flags: HMW
HStem: -614 22<87 110 1026 1049> 20 83G<252 526 263 526 609 872> 736 83G<451 686>
VStem: 56 83<-573 328> 526 83<-243 20 103 367> 996 83<-573 328>
LayerCount: 2
Fore
SplineSet
139 -573 m 2
 139 -596 121 -614 98 -614 c 0
 74 -614 56 -596 56 -573 c 2
 56 328 l 2
 56 604 290 819 568 819 c 0
 844 819 1079 604 1079 328 c 2
 1079 -573 l 2
 1079 -596 1061 -614 1037 -614 c 0
 1014 -614 996 -596 996 -573 c 2
 996 328 l 2
 996 556 802 736 568 736 c 0
 332 736 139 556 139 328 c 2
 139 -573 l 2
263 20 m 2
 240 20 222 38 222 61 c 0
 222 85 240 103 263 103 c 2
 526 103 l 1
 526 367 l 2
 526 390 544 408 568 408 c 0
 591 408 609 390 609 367 c 2
 609 103 l 1
 872 103 l 2
 896 103 914 85 914 61 c 0
 914 38 896 20 872 20 c 2
 609 20 l 1
 609 -243 l 2
 609 -267 591 -285 568 -285 c 0
 544 -285 526 -267 526 -243 c 2
 526 20 l 1
 263 20 l 2
EndSplineSet
EndChar

StartChar: largerrbracket
Encoding: 121 121 122
Width: 540
VWidth: 1843
Flags: HMW
HStem: -367 41<30 157 34 157 198 291> 819 41<30 321 34 157 198 291 198 198>
VStem: 157 41<-326 819> 291 41<-326 819 819 819>
LayerCount: 2
Fore
SplineSet
198 -326 m 1
 291 -326 l 1
 291 819 l 1
 198 819 l 1
 198 -326 l 1
332 -355 m 2
 332 -361 327 -367 321 -367 c 2
 34 -367 l 2
 27 -367 22 -361 22 -355 c 2
 22 -337 l 2
 22 -331 27 -326 34 -326 c 2
 157 -326 l 1
 157 819 l 1
 34 819 l 2
 27 819 22 824 22 830 c 2
 22 849 l 2
 22 855 27 860 34 860 c 2
 321 860 l 2
 327 860 332 855 332 849 c 2
 332 -355 l 2
EndSplineSet
EndChar

StartChar: Largerrbracket
Encoding: 122 122 123
Width: 596
VWidth: 1843
Flags: HMW
HStem: -981 48<27 167 30 167 215 316> 812 48<27 352 30 167 215 316 215 215>
VStem: 167 48<-933 812> 316 47<-933 812 812 812>
LayerCount: 2
Fore
SplineSet
215 -933 m 1
 316 -933 l 1
 316 812 l 1
 215 812 l 1
 215 -933 l 1
364 849 m 2
 364 -970 l 2
 364 -976 358 -981 352 -981 c 2
 30 -981 l 2
 24 -981 18 -976 18 -970 c 2
 18 -944 l 2
 18 -938 24 -933 30 -933 c 2
 167 -933 l 1
 167 812 l 1
 30 812 l 2
 24 812 18 817 18 823 c 2
 18 849 l 2
 18 855 24 860 30 860 c 2
 352 860 l 2
 358 860 364 855 364 849 c 2
EndSplineSet
EndChar

StartChar: LARGErrbracket
Encoding: 123 123 124
Width: 654
VWidth: 1843
Flags: HMW
HStem: -1595 54<24 178 27 178 232 341> 806 54<24 384 27 178 232 341 232 232>
VStem: 178 54<-1541 806> 341 54<-1541 806 806 806>
LayerCount: 2
Fore
SplineSet
232 -1541 m 1
 341 -1541 l 1
 341 806 l 1
 232 806 l 1
 232 -1541 l 1
395 849 m 2
 395 -1584 l 2
 395 -1590 390 -1595 384 -1595 c 2
 27 -1595 l 2
 21 -1595 15 -1590 15 -1584 c 2
 15 -1552 l 2
 15 -1546 21 -1541 27 -1541 c 2
 178 -1541 l 1
 178 806 l 1
 27 806 l 2
 21 806 15 811 15 817 c 2
 15 849 l 2
 15 855 21 860 27 860 c 2
 384 860 l 2
 390 860 395 855 395 849 c 2
EndSplineSet
EndChar

StartChar: hugerrbracket
Encoding: 124 124 125
Width: 710
VWidth: 1843
Flags: HMW
HStem: -2210 61<20 188 24 188 250 366> 799 61<20 416 24 188 250 366 250 250>
VStem: 188 61<-2148 799> 366 61<-2148 799 799 799>
LayerCount: 2
Fore
SplineSet
250 -2148 m 1
 366 -2148 l 1
 366 799 l 1
 250 799 l 1
 250 -2148 l 1
427 849 m 2
 427 -2199 l 2
 427 -2205 422 -2210 416 -2210 c 2
 24 -2210 l 2
 17 -2210 11 -2205 11 -2199 c 2
 11 -2160 l 2
 11 -2154 17 -2148 24 -2148 c 2
 188 -2148 l 1
 188 799 l 1
 24 799 l 2
 17 799 11 804 11 810 c 2
 11 849 l 2
 11 855 17 860 24 860 c 2
 416 860 l 2
 422 860 427 855 427 849 c 2
EndSplineSet
EndChar

StartChar: Hugerrbrackettop
Encoding: 125 125 126
Width: 796
VWidth: 1843
Flags: HMW
HStem: -994 22<197 200 200 245 399 402 402 447> 790 69<16 447 19 188 257 391 257 257>
VStem: 188 69<-983 790> 391 69<-983 790 790 790>
LayerCount: 2
Fore
SplineSet
402 -994 m 2
 396 -994 391 -989 391 -983 c 2
 391 790 l 1
 257 790 l 1
 257 -983 l 2
 257 -989 252 -994 245 -994 c 2
 200 -994 l 2
 194 -994 188 -989 188 -983 c 2
 188 790 l 1
 19 790 l 2
 13 790 8 795 8 801 c 2
 8 847 l 2
 8 853 13 858 19 858 c 2
 447 858 l 2
 454 858 460 853 460 847 c 2
 460 -983 l 2
 460 -989 454 -994 447 -994 c 2
 402 -994 l 2
EndSplineSet
EndChar

StartChar: Hugerrbracketbot
Encoding: 126 126 127
Width: 796
VWidth: 1843
Flags: HMW
HStem: -981 69<16 188 19 188 257 391> 851 20G<200 245 245 248 402 447 447 451>
VStem: 188 69<-912 860 -912 863> 391 69<-912 860>
LayerCount: 2
Fore
SplineSet
391 -912 m 1
 391 860 l 2
 391 866 396 871 402 871 c 2
 447 871 l 2
 454 871 460 866 460 860 c 2
 460 -970 l 2
 460 -976 454 -981 447 -981 c 2
 19 -981 l 2
 13 -981 8 -976 8 -970 c 2
 8 -924 l 2
 8 -918 13 -912 19 -912 c 2
 188 -912 l 1
 188 860 l 2
 188 866 194 871 200 871 c 2
 245 871 l 2
 252 871 257 866 257 860 c 2
 257 -912 l 1
 391 -912 l 1
EndSplineSet
EndChar

StartChar: Hugerrbracketex
Encoding: 127 127 128
Width: 796
VWidth: 1843
Flags: HMW
HStem: 203 22<197 200 200 245 399 402 402 447> 812 20G<200 245 245 248 402 447 447 451>
VStem: 188 69<214 821> 391 69<214 821>
LayerCount: 2
Fore
SplineSet
391 214 m 2
 391 821 l 2
 391 827 396 833 402 833 c 2
 447 833 l 2
 454 833 460 827 460 821 c 2
 460 214 l 2
 460 208 454 203 447 203 c 2
 402 203 l 2
 396 203 391 208 391 214 c 2
188 214 m 2
 188 821 l 2
 188 827 194 833 200 833 c 2
 245 833 l 2
 252 833 257 827 257 821 c 2
 257 214 l 2
 257 208 252 203 245 203 c 2
 200 203 l 2
 194 203 188 208 188 214 c 2
EndSplineSet
EndChar

StartChar: shortleftarrow
Encoding: 0 0 129
Width: 796
Flags: HMW
HStem: 74 22<232 234 234 243> 236 41<142 717 142 717> 418 20G<234 243 243 246>
LayerCount: 2
Fore
SplineSet
234 74 m 2
 229 74 225 77 223 81 c 0
 195 156 137 215 63 246 c 0
 61 247 58 249 57 252 c 2
 56 255 l 1
 56 259 59 264 63 266 c 0
 137 297 195 356 223 431 c 0
 225 435 229 438 234 438 c 2
 243 438 l 2
 249 438 254 432 254 427 c 0
 254 425 254 424 253 423 c 0
 230 364 192 313 142 276 c 1
 717 276 l 2
 730 276 737 266 737 256 c 0
 737 246 730 236 717 236 c 2
 142 236 l 1
 192 199 230 148 253 89 c 0
 254 88 254 87 254 85 c 0
 254 79 249 74 243 74 c 2
 234 74 l 2
EndSplineSet
EndChar

StartChar: varcurlywedgex
Encoding: 254 254 130
Width: 683
Flags: HMW
HStem: -222 22<17 23 658 664> 690 20G<334 346>
VStem: 319 41<525 696>
LayerCount: 2
Fore
SplineSet
34 -217 m 0
 30 -220 25 -222 20 -222 c 0
 14 -222 9 -219 5 -215 c 0
 2 -211 0 -206 0 -201 c 0
 0 -195 3 -189 7 -185 c 0
 252 23 319 359 319 690 c 0
 319 701 329 711 340 711 c 0
 351 711 360 701 360 690 c 0
 360 359 429 23 674 -185 c 0
 678 -189 681 -195 681 -201 c 0
 681 -206 679 -211 676 -215 c 0
 672 -219 666 -222 660 -222 c 0
 655 -222 651 -220 647 -217 c 0
 464 -61 376 160 340 396 c 1
 305 160 217 -61 34 -217 c 0
EndSplineSet
EndChar
